<?xml version="1.0" encoding="utf-8"?>
<!-- Generator: Adobe Illustrator 25.2.3, SVG Export Plug-In . SVG Version: 6.00 Build 0)  -->
<svg version="1.1" id="圖層_1" xmlns="http://www.w3.org/2000/svg" xmlns:xlink="http://www.w3.org/1999/xlink" x="0px" y="0px"
	 viewBox="0 0 145 195" style="enable-background:new 0 0 145 195;" xml:space="preserve">
<style type="text/css">
	.st0{fill:#666666;stroke:#333333;stroke-linecap:round;stroke-linejoin:round;}
	.st1{fill:#999999;stroke:#333333;stroke-linecap:round;stroke-linejoin:round;}
	.st2{fill:#FFFFFF;stroke:#333333;stroke-linecap:round;stroke-linejoin:round;}
	.st3{fill:#FFFF00;stroke:#333333;stroke-linecap:round;stroke-linejoin:round;}
	.st4{fill:#E6E6E6;stroke:#333333;stroke-linecap:round;stroke-linejoin:round;}
</style>
<polyline class="st0" points="1.96,192.5 1.96,2.56 1.96,0.03 143.78,0.03 143.78,2.56 143.78,192.5 143.78,195.03 1.96,195.03 "/>
<polygon class="st1" points="141.25,40.55 4.04,86.28 4.03,71.04 "/>
<polyline class="st2" points="141.25,40.55 141.25,2.56 143.78,2.56 1.96,2.56 4.49,2.56 4.49,70.94 "/>
<line class="st3" x1="143.78" y1="192.5" x2="143.78" y2="195.03"/>
<line class="st3" x1="1.96" y1="192.5" x2="1.96" y2="195.03"/>
<line class="st3" x1="143.78" y1="0.03" x2="143.78" y2="2.56"/>
<line class="st3" x1="1.96" y1="0.03" x2="1.96" y2="2.56"/>
<line class="st3" x1="141.25" y1="40.55" x2="141.56" y2="40.48"/>
<polyline class="st4" points="9.56,32.95 9.56,7.63 67.81,7.63 67.81,32.95 "/>
<line class="st3" x1="67.81" y1="32.95" x2="9.56" y2="32.95"/>
<rect x="77.93" y="7.63" class="st4" width="58.25" height="25.32"/>
<polyline class="st4" points="4.19,86.23 4.17,192.5 1.96,192.5 143.78,192.5 141.56,192.5 141.56,40.48 "/>
</svg>
