<?xml version="1.0" encoding="utf-8"?>
<!-- Generator: Adobe Illustrator 25.2.3, SVG Export Plug-In . SVG Version: 6.00 Build 0)  -->
<svg version="1.1" id="圖層_1" xmlns="http://www.w3.org/2000/svg" xmlns:xlink="http://www.w3.org/1999/xlink" x="0px" y="0px"
	 viewBox="0 0 190 220" style="enable-background:new 0 0 190 220;" xml:space="preserve">
<style type="text/css">
	.st0{fill:#998675;stroke:#333333;stroke-linecap:round;stroke-linejoin:round;}
	.st1{fill:#E6E6E6;stroke:#333333;stroke-linecap:round;stroke-linejoin:round;}
	.st2{fill:none;stroke:#333333;stroke-linecap:round;stroke-linejoin:round;}
</style>
<rect x="3.5" y="1.5" class="st0" width="185" height="218"/>
<rect x="11.5" y="10.5" class="st1" width="168" height="200"/>
<polyline class="st2" points="96.37,40.56 96.46,41.37 96.49,42.07 96.52,42.7 96.54,43.25 96.56,43.73 96.57,44.13 96.56,44.47 
	96.5,44.73 96.41,44.94 96.29,45.1 96.09,45.22 95.8,45.3 95.37,45.35 94.77,45.37 93.96,45.37 92.91,45.36 91.6,45.32 90,45.3 
	88.16,45.31 86.11,45.35 83.86,45.38 81.45,45.41 78.92,45.44 76.33,45.49 73.69,45.55 71.06,45.63 68.42,45.71 65.79,45.82 
	63.15,45.91 60.52,45.95 57.9,45.99 55.29,46.05 52.69,46.07 50.14,46 47.67,45.89 45.23,45.85 42.81,45.89 40.52,46.01 
	38.41,46.22 36.51,46.42 34.87,46.61 33.52,46.76 32.45,46.85 31.64,46.89 31.04,46.89 30.62,46.85 30.34,46.77 30.15,46.66 
	30.03,46.5 29.93,46.29 29.86,46.03 29.81,45.71 29.78,45.31 29.76,44.84 29.78,44.28 29.83,43.62 29.92,42.87 30.04,42.02 
	30.11,41.1 30.13,40.13 30.1,39.12 30.02,38.08 29.89,37.03 29.71,35.96 29.54,34.87 29.45,33.76 29.41,32.63 29.4,31.5 
	29.43,30.37 29.51,29.23 "/>
<line class="st2" x1="170.41" y1="31.64" x2="170.32" y2="32.76"/>
<polyline class="st2" points="103.77,25.72 103.97,24.58 104.2,23.41 103.97,24.55 103.97,24.58 "/>
<polyline class="st2" points="169.82,41.09 169.76,40.21 169.82,41.11 169.82,41.11 "/>
<polyline class="st2" points="170.15,37.22 170.23,36.13 170.29,35.02 170.31,33.89 170.32,32.76 "/>
<line class="st2" x1="169.99" y1="38.26" x2="170.15" y2="37.22"/>
<polyline class="st2" points="166.04,13.9 167.32,13.95 168.35,13.98 "/>
<polyline class="st2" points="104.2,23.41 104.43,22.27 104.61,21.15 104.77,20.07 104.87,19 104.84,17.97 104.76,17 104.66,16.09 
	104.57,15.27 104.51,14.55 104.44,13.94 104.36,13.41 104.31,12.98 104.29,12.62 104.29,12.34 104.32,12.12 104.38,11.96 
	104.47,11.84 104.58,11.74 104.76,11.68 105.04,11.63 105.45,11.61 106.03,11.61 106.8,11.63 107.81,11.67 109.07,11.72 
	110.63,11.77 112.46,11.83 114.53,11.9 116.8,11.99 119.21,12.08 121.74,12.17 124.34,12.27 126.98,12.37 129.62,12.47 
	132.26,12.61 134.9,12.78 137.52,12.96 "/>
<line class="st2" x1="164.91" y1="1.67" x2="164.91" y2="10.9"/>
<line class="st2" x1="97.73" y1="1.67" x2="97.73" y2="10.9"/>
<line class="st2" x1="26.35" y1="10.9" x2="26.35" y2="1.67"/>
<line class="st2" x1="93.53" y1="10.9" x2="93.53" y2="1.67"/>
<line class="st2" x1="96.36" y1="32.16" x2="96.42" y2="33.29"/>
<line class="st2" x1="96.38" y1="31.07" x2="96.36" y2="32.19"/>
<polyline class="st2" points="29.51,29.23 29.64,28.08 29.8,26.89 29.64,28.04 29.63,28.08 "/>
<polyline class="st2" points="96.45,36.88 96.38,37.68 96.27,38.69 96.26,39.64 96.37,40.54 "/>
<polyline class="st2" points="96.47,36.66 96.48,35.57 96.47,34.45 96.42,33.32 96.36,32.19 "/>
<line class="st2" x1="96.37" y1="37.71" x2="96.47" y2="36.66"/>
<polyline class="st2" points="90.94,13.63 92.22,13.6 93.25,13.57 "/>
<polyline class="st2" points="29.8,26.89 29.96,25.74 30.07,24.61 30.16,23.53 30.19,22.45 30.11,21.42 29.96,20.46 29.81,19.56 
	29.67,18.74 29.56,18.03 29.46,17.42 29.35,16.9 29.27,16.47 29.23,16.12 29.22,15.84 29.23,15.62 29.28,15.45 29.36,15.32 
	29.47,15.22 29.64,15.15 29.92,15.09 30.32,15.04 30.9,15.01 31.68,14.98 32.68,14.96 33.94,14.93 35.5,14.88 37.34,14.83 
	39.41,14.78 41.67,14.72 44.09,14.67 46.62,14.61 49.22,14.55 51.86,14.49 54.5,14.43 57.15,14.4 59.79,14.41 62.42,14.43 "/>
<line class="st2" x1="93.53" y1="10.9" x2="97.73" y2="10.9"/>
<line class="st2" x1="164.91" y1="10.9" x2="177.5" y2="10.9"/>
<path class="st2" d="M12.8,11.13c0.3-0.15,0.62-0.23,0.95-0.23"/>
<path class="st2" d="M177.5,10.9c1.16,0,2.1,0.94,2.1,2.1"/>
<path class="st2" d="M13.76,212.44c-1.16,0-2.1-0.94-2.1-2.1"/>
<path class="st2" d="M179.6,210.34c0,1.16-0.94,2.1-2.1,2.1"/>
<line class="st2" x1="11.66" y1="210.34" x2="11.66" y2="13"/>
<line class="st2" x1="13.76" y1="10.9" x2="26.35" y2="10.9"/>
<line class="st2" x1="179.6" y1="13" x2="179.6" y2="210.34"/>
<path class="st2" d="M11.66,13c0-0.79,0.44-1.51,1.15-1.87"/>
<line class="st2" x1="177.5" y1="212.44" x2="13.76" y2="212.44"/>
<polyline class="st2" points="157.03,45.15 159.28,45.25 161.33,45.34 163.16,45.44 164.76,45.56 166.07,45.67 167.12,45.76 
	167.92,45.81 168.53,45.82 168.96,45.79 169.25,45.73 169.45,45.63 169.58,45.48 169.68,45.28 169.75,45.02 169.78,44.69 "/>
<polyline class="st2" points="170.12,37.45 170,38.24 169.83,39.23 169.77,40.19 169.82,41.09 "/>
<polyline class="st2" points="169.15,14.04 169.76,14.07 170.18,14.12 170.47,14.17 170.66,14.25 170.78,14.34 170.87,14.47 
	170.94,14.63 170.98,14.84 "/>
<polyline class="st2" points="160.54,13.78 162.62,13.81 164.47,13.85 166.04,13.91 167.32,13.95 "/>
<polyline class="st2" points="107.81,11.67 109.07,11.72 110.63,11.77 112.46,11.83 114.53,11.91 "/>
<polyline class="st2" points="104.31,12.35 104.34,12.14 104.39,11.97 104.48,11.85 104.59,11.76 104.77,11.7 105.04,11.65 
	105.45,11.64 106.03,11.64 106.81,11.66 "/>
<polyline class="st2" points="103.11,42.52 103.17,42.78 103.25,42.99 103.36,43.15 103.53,43.27 103.81,43.36 104.23,43.43 
	104.82,43.46 105.64,43.47 106.71,43.45 108.06,43.38 109.72,43.3 111.62,43.21 113.74,43.13 116.04,43.15 118.45,43.25 
	120.89,43.45 123.35,43.7 125.89,43.93 128.48,44.07 131.09,44.17 133.71,44.29 "/>
<polyline class="st2" points="137.52,12.96 140.15,13.12 142.77,13.23 145.39,13.38 148.02,13.54 150.67,13.69 153.29,13.81 "/>
<polyline class="st2" points="153.29,13.81 155.84,13.83 158.27,13.78 160.54,13.77 162.62,13.8 164.47,13.85 166.04,13.9 "/>
<line class="st2" x1="170.32" y1="32.76" x2="170.31" y2="33.86"/>
<polyline class="st2" points="170.41,31.64 170.48,30.51 170.53,29.38 170.57,28.26 170.61,27.13 170.65,26 170.69,24.87 
	170.72,23.74 170.77,22.63 170.82,21.54 170.86,20.5 170.9,19.51 170.93,18.59 170.96,17.76 170.99,17.02 171.01,16.4 171.03,15.87 
	171.03,15.44 171.02,15.1 171,14.83 170.95,14.61 170.89,14.45 170.79,14.33 170.67,14.23 170.48,14.15 170.19,14.09 169.76,14.05 
	169.16,14.01 168.35,13.98 "/>
<polyline class="st2" points="169.82,41.11 169.85,41.92 169.84,42.62 169.84,43.25 169.82,43.81 169.81,44.28 169.8,44.69 
	169.76,45.02 169.69,45.28 169.59,45.49 169.46,45.64 169.26,45.75 168.96,45.81 168.53,45.83 167.92,45.82 167.12,45.77 
	166.07,45.69 164.76,45.58 163.17,45.46 161.33,45.35 159.28,45.26 157.03,45.16 154.63,45.04 152.11,44.92 149.51,44.81 
	146.88,44.71 144.24,44.62 141.6,44.55 138.97,44.49 136.33,44.42 133.7,44.3 131.08,44.18 128.47,44.09 125.88,43.95 123.34,43.72 
	120.88,43.47 118.45,43.27 116.04,43.17 113.73,43.15 111.61,43.23 109.72,43.32 108.06,43.4 106.71,43.47 105.64,43.49 
	104.82,43.48 104.22,43.44 103.81,43.38 103.53,43.29 103.35,43.16 103.24,43 103.16,42.78 103.1,42.52 103.07,42.19 103.06,41.8 
	103.07,41.32 103.12,40.76 103.22,40.11 103.35,39.36 103.52,38.52 103.65,37.61 103.73,36.65 103.75,35.64 103.74,34.59 
	103.67,33.53 103.56,32.45 103.45,31.36 103.43,30.24 103.46,29.11 103.52,27.99 103.62,26.86 103.77,25.72 "/>
<line class="st2" x1="11.66" y1="1.67" x2="3.26" y2="1.67"/>
<line class="st2" x1="164.91" y1="1.67" x2="179.6" y2="1.67"/>
<line class="st2" x1="164.91" y1="10.07" x2="179.6" y2="10.07"/>
<line class="st2" x1="97.73" y1="10.9" x2="164.91" y2="10.9"/>
<line class="st2" x1="97.73" y1="1.67" x2="164.91" y2="1.67"/>
<line class="st2" x1="93.53" y1="1.67" x2="97.73" y2="1.67"/>
<line class="st2" x1="93.53" y1="10.07" x2="97.73" y2="10.07"/>
<line class="st2" x1="93.53" y1="1.67" x2="26.35" y2="1.67"/>
<line class="st2" x1="93.53" y1="10.9" x2="26.35" y2="10.9"/>
<line class="st2" x1="11.66" y1="1.67" x2="26.35" y2="1.67"/>
<line class="st2" x1="179.6" y1="10.07" x2="179.6" y2="1.67"/>
<line class="st2" x1="11.66" y1="10.07" x2="26.35" y2="10.07"/>
<line class="st2" x1="11.66" y1="10.07" x2="11.66" y2="1.67"/>
<line class="st2" x1="3.26" y1="1.67" x2="3.26" y2="220"/>
<line class="st2" x1="188" y1="1.67" x2="179.6" y2="1.67"/>
<line class="st2" x1="188" y1="220" x2="188" y2="1.67"/>
<line class="st2" x1="3.26" y1="220" x2="188" y2="220"/>
<polyline class="st2" points="83.86,45.37 86.11,45.34 88.16,45.3 89.99,45.29 91.59,45.31 92.91,45.34 93.96,45.36 94.77,45.36 
	95.37,45.34 95.8,45.29 96.09,45.21 96.28,45.09 96.4,44.93 96.49,44.73 96.54,44.47 96.55,44.14 "/>
<line class="st2" x1="96.25" y1="39.66" x2="96.37" y2="40.56"/>
<polyline class="st2" points="94.06,13.58 94.66,13.58 95.09,13.59 95.38,13.63 95.57,13.7 95.7,13.79 95.8,13.9 95.88,14.06 
	95.93,14.27 "/>
<polyline class="st2" points="85.44,13.84 87.52,13.74 89.37,13.68 90.94,13.64 92.22,13.6 "/>
<polyline class="st2" points="32.68,14.96 33.94,14.93 35.5,14.89 37.34,14.83 39.41,14.78 "/>
<polyline class="st2" points="29.23,15.85 29.25,15.63 29.29,15.47 29.37,15.34 29.48,15.24 29.65,15.16 29.92,15.11 30.33,15.06 
	30.9,15.03 31.68,15.01 "/>
<polyline class="st2" points="29.87,46.03 29.95,46.29 30.04,46.49 30.16,46.64 30.34,46.76 30.62,46.83 31.04,46.87 31.64,46.87 
	32.45,46.83 33.52,46.74 34.87,46.59 36.52,46.41 38.41,46.2 40.52,45.99 42.82,45.87 45.23,45.83 47.68,45.88 50.15,45.98 
	52.7,46.06 55.29,46.04 57.9,45.98 60.52,45.94 "/>
<polyline class="st2" points="62.42,14.43 65.05,14.43 67.67,14.38 70.3,14.37 72.94,14.37 75.59,14.36 78.21,14.32 "/>
<polyline class="st2" points="78.21,14.32 80.76,14.18 83.18,13.99 85.44,13.83 87.52,13.74 89.37,13.67 90.94,13.63 "/>
<line class="st2" x1="96.36" y1="32.19" x2="96.42" y2="33.29"/>
<polyline class="st2" points="96.38,31.07 96.39,29.94 96.36,28.81 96.34,27.68 96.31,26.56 96.28,25.43 96.25,24.3 96.21,23.17 
	96.19,22.05 96.18,20.97 96.16,19.92 96.13,18.93 96.11,18.02 96.09,17.18 96.07,16.44 96.06,15.82 96.04,15.3 96.02,14.87 
	95.99,14.52 95.95,14.25 95.89,14.04 95.81,13.89 95.71,13.77 95.58,13.68 95.39,13.61 95.09,13.57 94.67,13.55 94.06,13.55 
	93.25,13.57 "/>
<line class="st2" x1="170.32" y1="32.73" x2="170.31" y2="33.86"/>
</svg>
