<?xml version="1.0" encoding="utf-8"?>
<!-- Generator: Adobe Illustrator 25.2.3, SVG Export Plug-In . SVG Version: 6.00 Build 0)  -->
<svg version="1.1" id="圖層_1" xmlns="http://www.w3.org/2000/svg" xmlns:xlink="http://www.w3.org/1999/xlink" x="0px" y="0px"
	 viewBox="0 0 40 40" style="enable-background:new 0 0 40 40;" xml:space="preserve">
<style type="text/css">
	.st0{fill:#B3B3B3;stroke:#666666;stroke-linecap:round;stroke-linejoin:round;}
	.st1{fill:none;stroke:#666666;stroke-linecap:round;stroke-linejoin:round;}
</style>
<rect x="0.5" y="0.5" class="st0" width="39" height="39"/>
<line class="st1" x1="0.05" y1="40" x2="39.63" y2="40"/>
<line class="st1" x1="37.16" y1="5.37" x2="37.16" y2="35.05"/>
<line class="st1" x1="5" y1="2.9" x2="34.68" y2="2.9"/>
<line class="st1" x1="2.53" y1="35.05" x2="2.53" y2="5.37"/>
<line class="st1" x1="37.16" y1="35.05" x2="34.68" y2="35.05"/>
<line class="st1" x1="34.68" y1="35.05" x2="34.68" y2="37.53"/>
<line class="st1" x1="5" y1="37.53" x2="5" y2="35.05"/>
<line class="st1" x1="5" y1="35.05" x2="2.53" y2="35.05"/>
<line class="st1" x1="2.53" y1="5.37" x2="5" y2="5.37"/>
<line class="st1" x1="5" y1="5.37" x2="5" y2="2.9"/>
<line class="st1" x1="34.68" y1="2.9" x2="34.68" y2="5.37"/>
<line class="st1" x1="34.68" y1="5.37" x2="37.16" y2="5.37"/>
<line class="st1" x1="0.05" y1="0.42" x2="0.05" y2="40"/>
<line class="st1" x1="39.63" y1="0.42" x2="0.05" y2="0.42"/>
<line class="st1" x1="39.63" y1="40" x2="39.63" y2="0.42"/>
<line class="st1" x1="34.68" y1="37.53" x2="5" y2="37.53"/>
</svg>
