<?xml version="1.0" encoding="utf-8"?>
<!-- Generator: Adobe Illustrator 25.2.3, SVG Export Plug-In . SVG Version: 6.00 Build 0)  -->
<svg version="1.1" id="圖層_1" xmlns="http://www.w3.org/2000/svg" xmlns:xlink="http://www.w3.org/1999/xlink" x="0px" y="0px"
	 viewBox="0 0 75 75" style="enable-background:new 0 0 75 75;" xml:space="preserve">
<style type="text/css">
	.st0{fill:#754C24;stroke:#1A1A1A;stroke-linecap:round;stroke-linejoin:round;}
</style>
<path class="st0" d="M37.85,72.52c4.37,0,8.7-0.82,12.76-2.43c4.41-1.74,8.41-4.37,11.76-7.72c3.35-3.35,5.98-7.35,7.72-11.76
	c1.61-4.07,2.43-8.39,2.43-12.76c0-4.37-0.82-8.7-2.43-12.76c-1.74-4.41-4.37-8.41-7.72-11.76c-3.35-3.35-7.35-5.98-11.76-7.72
	c-4.07-1.61-8.39-2.43-12.76-2.43c-4.37,0-8.7,0.82-12.76,2.43c-4.41,1.74-8.41,4.37-11.76,7.72c-3.35,3.35-5.98,7.35-7.72,11.76
	c-1.61,4.07-2.43,8.39-2.43,12.76c0,4.37,0.83,8.7,2.43,12.76c1.74,4.41,4.37,8.41,7.72,11.76c3.35,3.35,7.35,5.98,11.76,7.72
	C29.15,71.7,33.47,72.52,37.85,72.52z"/>
</svg>
