<?xml version="1.0" encoding="utf-8"?>
<!-- Generator: Adobe Illustrator 25.2.3, SVG Export Plug-In . SVG Version: 6.00 Build 0)  -->
<svg version="1.1" id="圖層_1" xmlns="http://www.w3.org/2000/svg" xmlns:xlink="http://www.w3.org/1999/xlink" x="0px" y="0px"
	 viewBox="0 0 145 195" style="enable-background:new 0 0 145 195;" xml:space="preserve">
<style type="text/css">
	.st0{fill:none;stroke:#000000;stroke-width:3;stroke-linecap:round;stroke-linejoin:round;}
</style>
<line class="st0" x1="4.49" y1="70.94" x2="4.49" y2="2.56"/>
<line class="st0" x1="1.96" y1="2.56" x2="143.78" y2="2.56"/>
<line class="st0" x1="4.04" y1="86.28" x2="141.25" y2="40.55"/>
<line class="st0" x1="141.25" y1="40.55" x2="4.03" y2="71.04"/>
<line class="st0" x1="143.78" y1="192.5" x2="143.78" y2="195.03"/>
<line class="st0" x1="1.96" y1="195.03" x2="143.78" y2="195.03"/>
<line class="st0" x1="1.96" y1="192.5" x2="1.96" y2="195.03"/>
<line class="st0" x1="143.78" y1="2.56" x2="143.78" y2="192.5"/>
<line class="st0" x1="1.96" y1="2.56" x2="1.96" y2="192.5"/>
<line class="st0" x1="1.96" y1="0.03" x2="143.78" y2="0.03"/>
<line class="st0" x1="143.78" y1="0.03" x2="143.78" y2="2.56"/>
<line class="st0" x1="1.96" y1="0.03" x2="1.96" y2="2.56"/>
<line class="st0" x1="4.19" y1="86.23" x2="4.17" y2="192.5"/>
<line class="st0" x1="141.56" y1="192.5" x2="141.56" y2="40.48"/>
<line class="st0" x1="141.25" y1="40.55" x2="141.56" y2="40.48"/>
<line class="st0" x1="67.81" y1="32.95" x2="67.81" y2="7.63"/>
<line class="st0" x1="9.56" y1="7.63" x2="9.56" y2="32.95"/>
<line class="st0" x1="67.81" y1="7.63" x2="9.56" y2="7.63"/>
<line class="st0" x1="67.81" y1="32.95" x2="9.56" y2="32.95"/>
<line class="st0" x1="136.18" y1="7.63" x2="77.93" y2="7.63"/>
<line class="st0" x1="136.18" y1="32.95" x2="77.93" y2="32.95"/>
<line class="st0" x1="136.18" y1="7.63" x2="136.18" y2="32.95"/>
<line class="st0" x1="77.93" y1="32.95" x2="77.93" y2="7.63"/>
<line class="st0" x1="4.04" y1="86.28" x2="4.03" y2="71.04"/>
<line class="st0" x1="141.25" y1="2.56" x2="141.25" y2="40.55"/>
<line class="st0" x1="1.96" y1="192.5" x2="143.78" y2="192.5"/>
</svg>
