<?xml version="1.0" encoding="utf-8"?>
<!-- Generator: Adobe Illustrator 25.2.3, SVG Export Plug-In . SVG Version: 6.00 Build 0)  -->
<svg version="1.1" id="圖層_1" xmlns="http://www.w3.org/2000/svg" xmlns:xlink="http://www.w3.org/1999/xlink" x="0px" y="0px"
	 viewBox="0 0 42 46" style="enable-background:new 0 0 42 46;" xml:space="preserve">
<style type="text/css">
	.st0{fill:#CCCCCC;stroke:#1A1A1A;stroke-linecap:round;stroke-linejoin:round;}
	.st1{fill:none;stroke:#1A1A1A;stroke-linecap:round;stroke-linejoin:round;}
</style>
<rect x="0.5" y="3.5" class="st0" width="40" height="39"/>
<line class="st1" x1="0.42" y1="36.08" x2="1.39" y2="36.08"/>
<line class="st1" x1="40.4" y1="42.07" x2="40.4" y2="36.07"/>
<line class="st1" x1="1.39" y1="2.29" x2="1.39" y2="0.37"/>
<line class="st1" x1="1.39" y1="36.08" x2="1.39" y2="37.29"/>
<line class="st1" x1="40.4" y1="0.37" x2="40.4" y2="2.29"/>
<polyline class="st1" points="0.42,2.29 1.39,2.29 40.4,2.29 41.37,2.29 "/>
<line class="st1" x1="1.39" y1="3.26" x2="1.39" y2="36.08"/>
<line class="st1" x1="40.4" y1="36.08" x2="40.4" y2="3.26"/>
<line class="st1" x1="41.37" y1="2.29" x2="41.37" y2="0.37"/>
<line class="st1" x1="0.42" y1="0.37" x2="0.42" y2="2.29"/>
<line class="st1" x1="1.39" y1="42.15" x2="1.39" y2="42.27"/>
<line class="st1" x1="0.42" y1="1.58" x2="0.42" y2="0.37"/>
<line class="st1" x1="1.39" y1="42.15" x2="1.39" y2="42.07"/>
<line class="st1" x1="1.39" y1="42.07" x2="40.4" y2="42.07"/>
<line class="st1" x1="40.4" y1="42.15" x2="40.4" y2="42.07"/>
<line class="st1" x1="1.39" y1="42.15" x2="40.4" y2="42.15"/>
<line class="st1" x1="1.39" y1="42.4" x2="1.39" y2="45"/>
<line class="st1" x1="40.4" y1="42.27" x2="40.4" y2="42.15"/>
<line class="st1" x1="40.4" y1="45" x2="40.4" y2="42.4"/>
<line class="st1" x1="41.37" y1="36.08" x2="41.37" y2="2.29"/>
<line class="st1" x1="41.37" y1="45" x2="41.37" y2="36.08"/>
<line class="st1" x1="0.42" y1="36.08" x2="0.42" y2="45"/>
<line class="st1" x1="0.42" y1="2.29" x2="0.42" y2="36.08"/>
<line class="st1" x1="1.39" y1="42.4" x2="40.4" y2="42.4"/>
<line class="st1" x1="1.39" y1="42.27" x2="40.4" y2="42.27"/>
<line class="st1" x1="1.39" y1="3.26" x2="40.4" y2="3.26"/>
<line class="st1" x1="41.37" y1="36.08" x2="40.4" y2="36.08"/>
<line class="st1" x1="41.37" y1="45" x2="40.4" y2="45"/>
<line class="st1" x1="41.37" y1="0.37" x2="40.4" y2="0.37"/>
<line class="st1" x1="0.42" y1="0.37" x2="1.39" y2="0.37"/>
<line class="st1" x1="0.42" y1="45" x2="1.39" y2="45"/>
<line class="st1" x1="1.39" y1="37.29" x2="1.39" y2="42.07"/>
</svg>
