<?xml version="1.0" encoding="utf-8"?>
<!-- Generator: Adobe Illustrator 25.2.3, SVG Export Plug-In . SVG Version: 6.00 Build 0)  -->
<svg version="1.1" id="圖層_1" xmlns="http://www.w3.org/2000/svg" xmlns:xlink="http://www.w3.org/1999/xlink" x="0px" y="0px"
	 viewBox="0 0 55 55" style="enable-background:new 0 0 55 55;" xml:space="preserve">
<style type="text/css">
	.st0{fill:none;stroke:#1A1A1A;stroke-linecap:round;stroke-linejoin:round;}
	.st1{fill:#808080;stroke:#1A1A1A;stroke-linecap:round;stroke-linejoin:round;}
</style>
<line class="st0" x1="27.04" y1="52.48" x2="27.04" y2="52.48"/>
<line class="st0" x1="1.02" y1="28.54" x2="1.02" y2="28.54"/>
<line class="st0" x1="26.04" y1="52.5" x2="26.04" y2="52.5"/>
<line class="st0" x1="1" y1="27.54" x2="1" y2="27.54"/>
<path class="st0" d="M26.04,52.5c0,0.02,0.03,0.03,0.05,0.04c0.02,0.01,0.04,0.01,0.06,0.02c0.04,0.01,0.09,0.02,0.13,0.02
	c0.09,0.01,0.17,0.01,0.26,0.01"/>
<path class="st0" d="M26.55,52.59c0.09,0,0.17-0.01,0.26-0.02c0.04-0.01,0.09-0.01,0.13-0.03c0.02-0.01,0.04-0.01,0.06-0.02
	c0.01-0.01,0.05-0.02,0.05-0.04"/>
<path class="st0" d="M1,27.54c-0.02,0-0.03,0.03-0.04,0.05c-0.01,0.02-0.01,0.04-0.02,0.06c-0.01,0.04-0.02,0.09-0.02,0.13
	c-0.01,0.09-0.01,0.17-0.01,0.26"/>
<path class="st0" d="M0.91,28.05c0,0.09,0.01,0.17,0.02,0.26c0.01,0.04,0.01,0.09,0.03,0.13c0.01,0.02,0.01,0.04,0.02,0.06
	c0.01,0.01,0.02,0.05,0.04,0.05"/>
<path class="st1" d="M52.33,21.36C52.33,21.35,52.34,21.36,52.33,21.36c0.01,0,0.01,0,0.02,0.01c0.02,0.01,0.04,0.01,0.05,0.02
	c0.07,0.03,0.15,0.06,0.22,0.08c0.1,0.04,0.2,0.07,0.29,0.11c0.2,0.07,0.39,0.15,0.59,0.22c0.2,0.07,0.39,0.15,0.59,0.22
	c0.1,0.04,0.2,0.07,0.29,0.11c0.07,0.03,0.15,0.06,0.22,0.08c0.02,0.01,0.04,0.01,0.05,0.02c0,0,0.01,0,0.01,0c0,0,0.01,0,0,0
	c-1.76,4.68-3.51,9.36-5.27,14.04c-0.54,1.44-1.2,2.8-1.99,4.11c-0.84,1.4-1.79,2.68-2.89,3.89c-1.13,1.25-2.39,2.38-3.74,3.38
	c-1.39,1.02-2.88,1.89-4.44,2.6c-1.57,0.71-3.2,1.26-4.88,1.64c-1.64,0.37-3.32,0.57-5.01,0.6c-3.14,0.06-6.29-0.49-9.23-1.59
	c-1.44-0.54-2.8-1.2-4.11-1.99c-1.4-0.84-2.68-1.79-3.89-2.89c-1.25-1.13-2.38-2.39-3.38-3.74c-1.02-1.39-1.89-2.88-2.6-4.44
	c-0.71-1.57-1.26-3.2-1.64-4.88c-0.37-1.64-0.57-3.32-0.6-5.01c-0.06-3.14,0.48-6.29,1.59-9.23C4.35,14.04,6.1,9.36,7.86,4.68
	c0,0,0,0,0,0c0,0,0.01,0,0.01,0C7.89,4.69,7.91,4.7,7.93,4.7C8,4.73,8.08,4.76,8.15,4.79c0.1,0.04,0.2,0.07,0.29,0.11
	c0.2,0.07,0.39,0.15,0.59,0.22c0.2,0.07,0.39,0.15,0.59,0.22c0.1,0.04,0.2,0.07,0.29,0.11c0.07,0.03,0.15,0.06,0.22,0.08
	c0.02,0.01,0.04,0.01,0.05,0.02c0,0,0.01,0,0.01,0c0,0,0.01,0,0,0"/>
<path class="st1" d="M4.93,19.6c-0.99,2.65-1.48,5.48-1.43,8.31c0.03,1.53,0.21,3.02,0.54,4.51c0.34,1.51,0.83,2.99,1.47,4.39
	c0.64,1.41,1.43,2.75,2.34,4c0.9,1.23,1.91,2.34,3.04,3.37c1.09,0.98,2.24,1.84,3.5,2.6c1.18,0.71,2.41,1.3,3.7,1.79
	c2.65,0.99,5.48,1.48,8.31,1.43c1.53-0.03,3.02-0.21,4.51-0.54c1.51-0.34,2.99-0.83,4.39-1.47c1.41-0.64,2.75-1.43,4-2.34
	c1.23-0.9,2.34-1.91,3.37-3.04c0.98-1.09,1.84-2.24,2.6-3.5c0.71-1.18,1.3-2.41,1.79-3.7c1.76-4.68,3.51-9.36,5.27-14.04l0.88-2.34
	c0.15-0.39,0.29-0.78,0.44-1.17c0.07-0.2,0.15-0.39,0.22-0.59c0.04-0.1,0.07-0.2,0.11-0.29c0.03-0.07,0.06-0.15,0.08-0.22
	c0.01-0.02,0.01-0.03,0.02-0.05c0,0,0-0.01,0-0.01c0,0,0-0.01,0,0L11.96,0.87c0,0,0,0,0,0c0,0,0,0.01,0,0.01
	c-0.01,0.02-0.01,0.03-0.02,0.05c-0.03,0.07-0.06,0.15-0.08,0.22c-0.04,0.1-0.07,0.2-0.11,0.29c-0.07,0.2-0.15,0.39-0.22,0.59
	c-0.15,0.39-0.29,0.78-0.44,1.17L10.2,5.55C8.44,10.24,6.69,14.92,4.93,19.6z"/>
</svg>
