<?xml version="1.0" encoding="utf-8"?>
<!-- Generator: Adobe Illustrator 25.2.3, SVG Export Plug-In . SVG Version: 6.00 Build 0)  -->
<svg version="1.1" id="圖層_1" xmlns="http://www.w3.org/2000/svg" xmlns:xlink="http://www.w3.org/1999/xlink" x="0px" y="0px"
	 viewBox="0 0 21 48" style="enable-background:new 0 0 21 48;" xml:space="preserve">
<style type="text/css">
	.st0{fill:none;stroke:#FFFFFF;stroke-linecap:round;stroke-linejoin:round;}
	.st1{fill:none;stroke:#999999;stroke-linecap:round;stroke-linejoin:round;}
</style>
<path class="st0" d="M20.49,11.92c0,0.01,0.01,0.02,0.01,0.03"/>
<path class="st0" d="M20.49,19.54c0.01,0,0.01,0.01,0.02,0.01"/>
<path class="st0" d="M20.48,19.68c-0.02,0-0.04,0-0.06,0"/>
<path class="st0" d="M20.49,37.38c0,0.01,0.01,0.02,0.01,0.03"/>
<path class="st0" d="M20.48,7.72c-0.01,0-0.02,0-0.04,0"/>
<path class="st0" d="M20.44,7.23C20.45,7.23,20.45,7.23,20.44,7.23c0,0.01,0,0.02,0.01,0.03c0,0.02,0.01,0.04,0.01,0.06
	c0.01,0.03,0.02,0.07,0.02,0.1c0,0,0,0.01,0,0.01c0.01,0.03,0.01,0.07,0.02,0.1c0,0.02,0,0.03,0.01,0.05c0,0.02,0,0.05,0,0.07
	c0,0,0,0.01,0,0.01c0,0.02-0.01,0.03-0.01,0.04"/>
<path class="st0" d="M20.46,37.3c-0.01,0.02,0-0.02,0-0.03s0-0.02,0-0.03"/>
<line class="st0" x1="20.45" y1="37.24" x2="20.46" y2="37.24"/>
<path class="st1" d="M8.33,15.96c0.04,0,0.08,0,0.12,0c2.2,0,4.28,0,6.5,0c0.27,0,0.55,0,0.58,0"/>
<path class="st1" d="M0.6,15.96c0.04,0,0.29,0,0.54,0c1.86,0,3.62,0,5.36,0"/>
<path class="st1" d="M8.33,15.73c-0.01,0-0.03,0-0.06,0c-0.24,0-0.84,0-1.57,0"/>
<path class="st1" d="M15.53,15.73c-0.03,0-0.31,0-0.58,0c-2.22,0-4.3,0-6.5,0c-0.04,0-0.08,0-0.12,0"/>
<line class="st1" x1="15.53" y1="15.96" x2="15.53" y2="15.73"/>
<path class="st1" d="M6.69,15.96c0.72,0,1.33,0,1.57,0c0.03,0,0.05,0,0.06,0"/>
<path class="st1" d="M15.53,31.45c-0.03,0-0.31,0-0.58,0c-2.22,0-4.3,0-6.5,0c-0.04,0-0.08,0-0.12,0"/>
<path class="st1" d="M6.69,31.45c-0.08,0-0.16,0-0.19,0c-0.01,0-0.01,0-0.01,0"/>
<path class="st1" d="M6.49,31.45c-1.74,0-3.49,0-5.36,0c-0.25,0-0.5,0-0.54,0"/>
<path class="st1" d="M8.33,31.22c-0.01,0-0.03,0-0.06,0c-0.24,0-0.84,0-1.57,0"/>
<path class="st1" d="M15.53,31.22c-0.03,0-0.31,0-0.58,0c-2.22,0-4.3,0-6.5,0c-0.04,0-0.08,0-0.12,0"/>
<path class="st1" d="M6.69,31.22c-0.08,0-0.16,0-0.19,0c-0.01,0-0.01,0-0.01,0"/>
<path class="st1" d="M6.49,31.22c-1.74,0-3.49,0-5.35,0c-0.25,0-0.5,0-0.54,0"/>
<path class="st1" d="M8.33,10.91c0.04,0,0.08,0,0.12,0c2.2,0,4.28,0,6.5,0c0.27,0,0.55,0,0.58,0"/>
<path class="st1" d="M0.6,10.91c0.04,0,0.29,0,0.54,0c1.86,0,3.62,0,5.36,0"/>
<path class="st1" d="M8.33,10.68c-0.01,0-0.03,0-0.06,0c-0.24,0-0.84,0-1.57,0c-0.08,0-0.16,0-0.19,0c-0.01,0-0.01,0-0.01,0"/>
<path class="st1" d="M15.53,10.68c-0.03,0-0.31,0-0.58,0c-2.22,0-4.3,0-6.5,0c-0.04,0-0.08,0-0.12,0"/>
<line class="st1" x1="6.49" y1="10.91" x2="6.49" y2="10.75"/>
<path class="st1" d="M6.49,10.91c0,0,0,0,0.01,0c0.03,0,0.11,0,0.19,0c0.72,0,1.33,0,1.57,0c0.03,0,0.05,0,0.06,0"/>
<path class="st1" d="M6.49,10.68c-1.74,0-3.49,0-5.35,0c-0.25,0-0.5,0-0.54,0"/>
<path class="st1" d="M8.33,21.18c-0.01,0-0.03,0-0.06,0c-0.24,0-0.84,0-1.57,0"/>
<path class="st1" d="M15.53,21.18c-0.03,0-0.31,0-0.58,0c-2.22,0-4.3,0-6.5,0c-0.04,0-0.08,0-0.12,0"/>
<path class="st1" d="M6.69,21.18c-0.08,0-0.16,0-0.19,0c-0.01,0-0.01,0-0.01,0"/>
<path class="st1" d="M6.49,21.18c-1.74,0-3.49,0-5.36,0c-0.25,0-0.5,0-0.54,0"/>
<path class="st0" d="M20.5,29.5C20.5,29.5,20.5,29.5,20.5,29.5c0-0.01-0.01-0.02-0.01-0.04c0-0.01-0.01-0.01-0.01-0.02"/>
<path class="st0" d="M20.43,29.65C20.43,29.65,20.43,29.65,20.43,29.65c0-0.02,0.01-0.04,0.02-0.05c0.01-0.01,0.01-0.01,0.02-0.02
	c0.01,0,0.01-0.01,0.02-0.01"/>
<path class="st0" d="M20.42,29.18C20.42,29.18,20.42,29.18,20.42,29.18c0,0,0,0.02,0,0.05c0,0,0,0.01,0,0.01"/>
<path class="st0" d="M20.5,29.34C20.5,29.34,20.5,29.34,20.5,29.34c0.01-0.02,0.02-0.03,0.02-0.04c0.01-0.01,0-0.02-0.01-0.02"/>
<path class="st0" d="M20.5,29.34c-0.01,0.02-0.02,0.04-0.02,0.06c0,0,0,0.01,0,0.02"/>
<path class="st0" d="M20.42,29.42c0,0.01,0,0.02,0,0.03c0,0.02,0,0.03,0,0.05c0,0.03,0,0.05,0,0.07c0,0.01,0,0.02,0,0.03"/>
<path class="st0" d="M20.49,37.29c0-0.01-0.01-0.01-0.01-0.02c0-0.01-0.01-0.02,0-0.03"/>
<path class="st0" d="M20.44,29.27c0,0,0,0.01,0.01,0.01c0.01,0.01,0.01,0.01,0.02,0.02c0.01,0.01,0.02,0.01,0.02,0.01
	c0.01,0,0.02,0.01,0.02,0.01c0,0,0.01,0,0.01,0.01"/>
<path class="st0" d="M20.45,29.64c-0.01,0.01-0.02,0.03-0.02,0.05c0,0.01,0,0.02,0,0.02"/>
<path class="st0" d="M20.49,29.53c0,0.01,0.01,0.01,0.01,0.02c0,0,0,0,0,0.01"/>
<path class="st0" d="M20.46,19.64c0,0.02,0,0.05,0,0.06"/>
<path class="st0" d="M20.49,11.82c0-0.01-0.01-0.01-0.01-0.02c0-0.01-0.01-0.02,0-0.03"/>
<path class="st0" d="M20.52,11.66c0-0.01,0-0.01,0-0.02"/>
<path class="st1" d="M8.33,42.1c0.04,0,0.08,0,0.12,0c2.2,0,4.28,0,6.5,0c0.27,0,0.55,0,0.58,0"/>
<path class="st1" d="M8.33,41.87c-0.01,0-0.03,0-0.06,0c-0.24,0-0.84,0-1.57,0"/>
<path class="st1" d="M15.53,41.87c-0.03,0-0.31,0-0.58,0c-2.22,0-4.3,0-6.5,0c-0.04,0-0.08,0-0.12,0"/>
<path class="st1" d="M6.49,42.1c0,0,0,0,0.01,0c0.03,0,0.11,0,0.19,0"/>
<path class="st1" d="M8.33,42.1c-0.01,0-0.03,0-0.06,0c-0.24,0-0.84,0-1.57,0"/>
<path class="st1" d="M6.49,42.1c-1.74,0-3.49,0-5.35,0c-0.25,0-0.5,0-0.54,0"/>
<path class="st1" d="M6.49,21.41c-1.74,0-3.49,0-5.35,0c-0.25,0-0.5,0-0.54,0"/>
<path class="st1" d="M8.33,24.73c0.04,0,0.08,0,0.12,0c2.2,0,4.28,0,6.5,0c0.27,0,0.55,0,0.58,0"/>
<path class="st1" d="M8.33,24.5c-0.01,0-0.03,0-0.06,0c-0.24,0-0.84,0-1.57,0"/>
<path class="st1" d="M6.49,24.73c0,0,0,0,0.01,0c0.03,0,0.11,0,0.19,0c0.72,0,1.33,0,1.57,0c0.03,0,0.05,0,0.06,0"/>
<path class="st1" d="M6.5,24.73c-1.74,0-3.5,0-5.36,0c-0.25,0-0.5,0-0.54,0"/>
<path class="st1" d="M8.33,28.24c-0.01,0-0.03,0-0.06,0c-0.24,0-0.84,0-1.57,0"/>
<path class="st1" d="M15.53,28.24c-0.03,0-0.31,0-0.58,0c-2.22,0-4.3,0-6.5,0c-0.04,0-0.08,0-0.12,0"/>
<path class="st1" d="M6.69,28.24c-0.08,0-0.16,0-0.19,0c-0.01,0-0.01,0-0.01,0"/>
<path class="st1" d="M6.5,28.24c-1.74,0-3.5,0-5.36,0c-0.25,0-0.5,0-0.54,0"/>
<line class="st0" x1="20.49" y1="41.25" x2="20.49" y2="41.25"/>
<path class="st1" d="M15.53,24.5c-0.03,0-0.31,0-0.58,0c-2.22,0-4.3,0-6.5,0c-0.04,0-0.08,0-0.12,0"/>
<path class="st1" d="M6.69,24.5c-0.08,0-0.16,0-0.19,0c-0.01,0-0.01,0-0.01,0"/>
<path class="st1" d="M6.49,24.5c-1.74,0-3.49,0-5.35,0c-0.25,0-0.5,0-0.54,0"/>
<path class="st0" d="M18.98,24.5c0-0.2,0.08-0.34,0.21-0.48"/>
<path class="st0" d="M8.07,2.45C8.05,2.49,8.02,2.53,8,2.57"/>
<path class="st1" d="M8.33,21.41c0.04,0,0.08,0,0.12,0c2.2,0,4.28,0,6.5,0c0.27,0,0.55,0,0.58,0"/>
<line class="st1" x1="15.53" y1="21.41" x2="15.53" y2="21.18"/>
<path class="st1" d="M6.5,21.41C6.5,21.41,6.5,21.41,6.5,21.41c0.04,0,0.12,0,0.2,0c0.72,0,1.33,0,1.57,0c0.03,0,0.05,0,0.06,0"/>
<path class="st0" d="M20.46,19.59c0,0.01,0,0.03,0,0.06"/>
<path class="st0" d="M20.42,7.01c0,0.01,0,0.01,0,0.02c0,0,0,0.01,0,0.01"/>
<path class="st0" d="M20.42,7.05c0,0.02,0,0.03,0,0.05"/>
<path class="st0" d="M20.42,6.82c0,0,0,0.01,0,0.01c0,0.01,0,0.02,0,0.04c0,0.01,0,0.03,0,0.05"/>
<path class="st0" d="M20.49,19.64c0,0.01-0.01,0.02-0.01,0.03"/>
<path class="st0" d="M20.51,19.78c0,0.01,0.01,0.01,0.01,0.02c0.01,0.01,0,0.02-0.01,0.02c-0.01,0-0.01,0.01-0.02,0.01
	c-0.01,0-0.02,0.01-0.02,0.01c-0.01,0-0.01,0.01-0.02,0.02c-0.01,0.01-0.02,0.03-0.02,0.05c0,0.01,0,0.01,0,0.01"/>
<path class="st0" d="M20.52,41.33c0.01,0.04,0,0.08-0.01,0.11c-0.01,0.04-0.01,0.07-0.02,0.11c-0.01,0.03-0.02,0.07-0.02,0.1
	c-0.01,0.02-0.01,0.05-0.02,0.07"/>
<path class="st0" d="M20.48,41.24C20.48,41.24,20.48,41.25,20.48,41.24c0.01,0.01,0.02,0.02,0.02,0.03c0,0,0,0,0,0"/>
<path class="st0" d="M20.42,41.95c0,0.01,0,0.01,0,0.02"/>
<path class="st0" d="M20.42,42.05c0,0.01,0,0.03,0,0.04c0,0,0,0.01,0,0.01"/>
<path class="st0" d="M20.48,41.27c0,0,0-0.01,0-0.01c0-0.01,0-0.01,0-0.02"/>
<line class="st0" x1="20.45" y1="37.18" x2="20.46" y2="37.18"/>
<path class="st0" d="M20.5,37.16c-0.01,0.02-0.02,0.04-0.02,0.06c0,0,0,0.01,0,0.02"/>
<path class="st0" d="M20.5,37.32C20.5,37.32,20.5,37.32,20.5,37.32c0-0.01-0.01-0.02-0.01-0.04c0-0.01-0.01-0.01-0.01-0.02"/>
<path class="st0" d="M20.45,37.42c0.01-0.01,0.01-0.01,0.02-0.02c0.01-0.01,0.02-0.01,0.02-0.01c0.01,0,0.01,0,0.02-0.01"/>
<line class="st1" x1="19.12" y1="2.46" x2="8.06" y2="2.46"/>
<line class="st1" x1="6.74" y1="10.68" x2="6.74" y2="1"/>
<line class="st1" x1="6.74" y1="48" x2="6.74" y2="42.1"/>
<polyline class="st1" points="19.19,2.47 19.19,46.53 8,46.53 8,42.1 "/>
<polyline class="st1" points="6.74,48 20.45,48 20.45,1 "/>
<line class="st1" x1="6.74" y1="1" x2="20.45" y2="1"/>
<path class="st0" d="M20.46,11.72c0,0.01,0,0.03,0,0.06"/>
<line class="st0" x1="20.46" y1="11.78" x2="20.45" y2="11.78"/>
<path class="st0" d="M20.46,29.48c-0.01-0.04,0-0.08,0-0.12"/>
<path class="st0" d="M20.49,29.47c0-0.01-0.01-0.01-0.01-0.02c0-0.01-0.01-0.02,0-0.03"/>
<path class="st0" d="M20.46,11.78c0,0.02,0,0.05,0,0.06"/>
<path class="st0" d="M20.52,19.53c0-0.01,0-0.01,0-0.02"/>
<path class="st1" d="M0.6,28.47c0.04,0,0.29,0,0.54,0c1.86,0,3.62,0,5.36,0"/>
<path class="st1" d="M6.49,28.47c0,0,0,0,0.01,0c0.03,0,0.11,0,0.19,0c0.72,0,1.33,0,1.57,0c0.03,0,0.05,0,0.06,0"/>
<path class="st1" d="M6.49,28.47c0,0,0,0,0.01,0c0.03,0,0.11,0,0.19,0c0.72,0,1.33,0,1.57,0c0.03,0,0.05,0,0.06,0"/>
<path class="st1" d="M6.49,28.47c0,0,0,0,0.01,0c0.03,0,0.11,0,0.19,0c0.72,0,1.33,0,1.57,0c0.03,0,0.05,0,0.06,0"/>
<path class="st1" d="M6.49,28.47c0,0,0,0,0.01,0c0.03,0,0.11,0,0.19,0c0.72,0,1.33,0,1.57,0c0.03,0,0.05,0,0.06,0"/>
<path class="st1" d="M6.49,28.47c0,0,0,0,0.01,0c0.03,0,0.11,0,0.19,0c0.72,0,1.33,0,1.57,0c0.03,0,0.05,0,0.06,0"/>
<path class="st1" d="M6.49,28.47c0,0,0,0,0.01,0c0.03,0,0.11,0,0.19,0c0.72,0,1.33,0,1.57,0c0.03,0,0.05,0,0.06,0"/>
<path class="st1" d="M15.53,28.47c-0.03,0-0.31,0-0.58,0c-2.22,0-4.3,0-6.5,0c-0.04,0-0.08,0-0.12,0"/>
<path class="st0" d="M20.48,29.46c-0.02,0-0.04,0-0.06,0"/>
<path class="st0" d="M20.5,29.55c0.01,0.01,0.01,0.02,0.01,0.03"/>
<path class="st0" d="M20.5,11.95c0.01,0.01,0.01,0.02,0.01,0.03c0.01,0.01,0,0.02-0.01,0.02c-0.01,0-0.01,0.01-0.02,0.01
	c0,0,0,0-0.01,0"/>
<path class="st0" d="M20.5,19.73C20.5,19.73,20.5,19.73,20.5,19.73c0-0.01-0.01-0.02-0.01-0.04c0-0.01-0.01-0.02-0.01-0.03"/>
<path class="st0" d="M20.5,19.78C20.51,19.78,20.51,19.78,20.5,19.78c0.01-0.01,0.01-0.01,0.01-0.01"/>
<path class="st0" d="M20.42,19.83C20.42,19.83,20.42,19.84,20.42,19.83c0,0.03,0,0.05,0,0.06c0,0,0,0,0,0"/>
<path class="st0" d="M20.42,19.4C20.42,19.4,20.42,19.4,20.42,19.4c0,0,0,0.02,0,0.04"/>
<path class="st0" d="M20.52,19.51C20.52,19.51,20.51,19.51,20.52,19.51c-0.01-0.01-0.02-0.01-0.03-0.02c-0.01,0-0.02-0.01-0.02-0.01
	c-0.01,0-0.01-0.01-0.02-0.02c0,0,0-0.01-0.01-0.01"/>
<path class="st0" d="M20.5,19.57C20.5,19.56,20.5,19.56,20.5,19.57c0.01-0.02,0.02-0.03,0.02-0.04c0,0,0,0,0,0"/>
<path class="st0" d="M20.42,19.64c0,0.01,0,0.02,0,0.03c0,0.02,0,0.03,0,0.05c0,0.03,0,0.05,0,0.07c0,0.01,0,0.02,0,0.03"/>
<path class="st1" d="M6.69,41.87c-0.08,0-0.16,0-0.19,0c-0.01,0-0.01,0-0.01,0"/>
<path class="st1" d="M6.49,41.87c-1.74,0-3.49,0-5.35,0c-0.25,0-0.5,0-0.54,0"/>
<path class="st1" d="M6.69,15.96c-0.08,0-0.16,0-0.19,0c-0.01,0-0.01,0-0.01,0"/>
<path class="st1" d="M6.69,31.45c0.72,0,1.33,0,1.57,0c0.03,0,0.05,0,0.06,0"/>
<path class="st1" d="M6.69,15.73c-0.08,0-0.16,0-0.19,0c-0.01,0-0.01,0-0.01,0"/>
<path class="st1" d="M6.49,15.73c-1.74,0-3.49,0-5.36,0c-0.25,0-0.5,0-0.54,0"/>
<path class="st0" d="M20.5,11.86C20.5,11.86,20.5,11.86,20.5,11.86c0-0.01-0.01-0.02-0.01-0.04c0-0.01-0.01-0.01-0.01-0.02"/>
<path class="st0" d="M20.43,12C20.43,12,20.43,12,20.43,12c0-0.02,0.01-0.04,0.02-0.05c0.01-0.01,0.01-0.01,0.02-0.02
	c0.01-0.01,0.02-0.01,0.02-0.01c0.01,0,0.02-0.01,0.02-0.01c0.01,0,0.01-0.01,0.01-0.02c0,0,0,0,0-0.01"/>
<path class="st0" d="M20.42,11.59c0,0.01,0,0.02,0,0.03c0,0.02,0,0.05,0,0.07c0,0.02,0,0.03,0,0.05c0,0.01,0,0.02,0,0.03"/>
<path class="st0" d="M20.42,11.53C20.42,11.53,20.42,11.53,20.42,11.53c0,0,0,0.02,0,0.05c0,0,0,0.01,0,0.01"/>
<path class="st0" d="M20.52,11.65C20.52,11.64,20.51,11.64,20.52,11.65c-0.01-0.01-0.02-0.01-0.03-0.02c-0.01,0-0.02-0.01-0.02-0.01
	c-0.01,0-0.01-0.01-0.02-0.02c0,0,0-0.01-0.01-0.01"/>
<path class="st0" d="M20.5,11.7c-0.01,0.02-0.02,0.04-0.02,0.06c0,0,0,0.01,0,0.02"/>
<path class="st0" d="M20.42,11.78c0,0.01,0,0.02,0,0.03c0,0.02,0,0.03,0,0.05c0,0.03,0,0.05,0,0.07c0,0.01,0,0.02,0,0.03"/>
<path class="st0" d="M20.42,41.93c0,0.01,0,0.01,0,0.02"/>
<path class="st0" d="M20.49,41.26c0,0,0.01,0.01,0.01,0.01"/>
<line class="st0" x1="20.45" y1="7.03" x2="20.46" y2="7.03"/>
<line class="st0" x1="20.46" y1="37.3" x2="20.45" y2="37.3"/>
<path class="st0" d="M20.51,29.56c0.01,0,0.01-0.01,0.01-0.02c0,0,0,0,0,0"/>
<path class="st0" d="M20.42,29.23c0,0.01,0,0.02,0,0.03c0,0,0,0.01,0,0.01"/>
<path class="st0" d="M20.44,29.24c-0.01-0.01-0.01-0.03-0.02-0.04c0,0,0-0.01,0-0.01"/>
<path class="st0" d="M20.52,29.34C20.52,29.34,20.52,29.35,20.52,29.34c0,0.01-0.01,0.02-0.01,0.04"/>
<path class="st0" d="M20.5,29.6c0,0-0.01,0-0.02,0.01c-0.01,0-0.02,0.01-0.02,0.01c-0.01,0-0.01,0.01-0.01,0.01"/>
<path class="st0" d="M20.42,29.69c0-0.01,0-0.01,0-0.02"/>
<line class="st1" x1="6.49" y1="42.1" x2="6.49" y2="41.93"/>
<path class="st0" d="M20.44,41.24c0.01,0,0.02,0,0.03,0"/>
<path class="st0" d="M20.51,19.55c0.01,0,0.01,0.01,0.01,0.02c0,0.01-0.01,0.02-0.01,0.03c0,0.01,0,0.02-0.01,0.03"/>
<path class="st0" d="M20.48,19.7c0,0.01,0,0.02,0.01,0.03c0,0.01,0.01,0.01,0.01,0.02"/>
<path class="st0" d="M20.51,37.38c0.01,0,0.01-0.01,0.01-0.02c0,0,0-0.01,0-0.01"/>
<line class="st1" x1="8" y1="10.68" x2="8" y2="2.47"/>
<path class="st0" d="M20.49,11.72c0.01,0,0.01,0.01,0.02,0.01c0.01,0,0.01,0.01,0.01,0.02c0,0.01-0.01,0.02-0.01,0.03
	c0,0.01-0.01,0.02-0.01,0.03c0,0,0,0,0,0.01"/>
<path class="st0" d="M20.43,19.86c0-0.01,0.01-0.03,0.02-0.04c0.01-0.01,0.01-0.01,0.02-0.02c0.01,0,0.01-0.01,0.02-0.01"/>
<path class="st0" d="M20.42,19.46c0,0.01,0,0.02,0,0.03c0,0.02,0,0.05,0,0.07c0,0.02,0,0.03,0,0.05c0,0.01,0,0.02,0,0.03"/>
<path class="st0" d="M20.42,11.96C20.42,11.97,20.42,11.97,20.42,11.96c0,0.02,0,0.04,0,0.04"/>
<line class="st0" x1="20.46" y1="37.19" x2="20.46" y2="37.18"/>
<path class="st0" d="M20.49,29.57c0.01,0,0.01,0,0.02-0.01"/>
<path class="st0" d="M20.48,29.44c0,0.01,0,0.01,0,0.02"/>
<polyline class="st0" points="20.48,29.51 20.48,29.51 20.49,29.51 "/>
<path class="st0" d="M20.52,29.57c0.01,0.01,0,0.02-0.01,0.02"/>
<line class="st0" x1="20.5" y1="11.7" x2="20.5" y2="11.69"/>
<path class="st0" d="M20.44,11.67c0,0,0,0.01,0.01,0.01"/>
<path class="st0" d="M20.42,29.39c0,0.01,0,0.02,0,0.03"/>
<line class="st0" x1="20.5" y1="37.38" x2="20.51" y2="37.38"/>
<path class="st0" d="M19.19,24.99c-0.05-0.06-0.1-0.12-0.14-0.19"/>
<path class="st0" d="M19.05,24.79c-0.05-0.09-0.07-0.18-0.07-0.28"/>
<path class="st0" d="M19.13,46.53c0.02-0.04,0.04-0.07,0.07-0.11"/>
<line class="st0" x1="20.48" y1="19.67" x2="20.48" y2="19.68"/>
<polyline class="st0" points="20.5,19.76 20.5,19.76 20.5,19.77 "/>
<line class="st1" x1="6.74" y1="24.5" x2="6.74" y2="21.41"/>
<line class="st1" x1="6.74" y1="21.18" x2="6.74" y2="15.96"/>
<line class="st1" x1="6.74" y1="15.73" x2="6.74" y2="10.91"/>
<line class="st1" x1="6.74" y1="41.87" x2="6.74" y2="31.45"/>
<line class="st1" x1="8" y1="24.5" x2="8" y2="21.41"/>
<line class="st1" x1="8" y1="21.17" x2="8" y2="15.95"/>
<line class="st1" x1="8" y1="15.73" x2="8" y2="10.91"/>
<line class="st1" x1="8" y1="41.87" x2="8" y2="31.45"/>
<path class="st0" d="M20.5,11.69c0.01-0.01,0.01-0.02,0.02-0.03"/>
<line class="st0" x1="20.48" y1="29.57" x2="20.49" y2="29.57"/>
<line class="st0" x1="20.5" y1="29.56" x2="20.51" y2="29.56"/>
<path class="st0" d="M20.49,11.93c0,0.01,0.01,0.01,0.01,0.02"/>
<line class="st0" x1="20.49" y1="11.82" x2="20.49" y2="11.83"/>
<line class="st1" x1="15.53" y1="10.91" x2="15.53" y2="10.68"/>
<line class="st0" x1="20.42" y1="29.61" x2="20.42" y2="29.62"/>
<path class="st0" d="M20.49,29.41c0,0.01-0.01,0.01-0.01,0.02"/>
<line class="st0" x1="20.43" y1="29.24" x2="20.43" y2="29.24"/>
<path class="st0" d="M20.48,7.72c0-0.01,0-0.01,0-0.02"/>
<path class="st0" d="M20.49,7.72C20.48,7.72,20.47,7.72,20.49,7.72"/>
<path class="st0" d="M20.5,11.95c0,0.01,0.01,0.01,0.01,0.02"/>
<path class="st0" d="M20.48,12.01c-0.01,0-0.01,0.01-0.02,0.01c-0.01,0-0.01,0.01-0.02,0.02"/>
<path class="st0" d="M20.48,19.68c0,0,0,0.01,0,0.01"/>
<path class="st0" d="M20.5,37.42c0,0.01,0.01,0.01,0.01,0.02"/>
<path class="st0" d="M20.52,37.44c0,0.01,0,0.01,0,0.02"/>
<path class="st0" d="M20.5,7.69c0,0.01,0,0.01-0.01,0.02"/>
<line class="st0" x1="20.49" y1="7.72" x2="20.49" y2="7.72"/>
<line class="st1" x1="15.53" y1="15.73" x2="15.53" y2="15.73"/>
<path class="st1" d="M0.59,10.68c-0.01,0-0.01,0-0.02,0"/>
<path class="st1" d="M8.33,10.68C8.33,10.68,8.33,10.68,8.33,10.68"/>
<path class="st1" d="M0.57,15.96c0,0,0.01,0,0.02,0"/>
<line class="st1" x1="0.6" y1="15.96" x2="0.59" y2="15.96"/>
<line class="st1" x1="0.59" y1="15.73" x2="0.6" y2="15.73"/>
<line class="st1" x1="6.49" y1="15.96" x2="6.49" y2="15.79"/>
<line class="st1" x1="7.89" y1="15.96" x2="7.89" y2="15.91"/>
<line class="st1" x1="0.57" y1="15.96" x2="0.57" y2="15.73"/>
<path class="st1" d="M0.59,15.73c-0.01,0-0.01,0-0.02,0"/>
<line class="st1" x1="15.53" y1="31.22" x2="15.53" y2="31.22"/>
<path class="st1" d="M0.59,31.45c-0.01,0-0.01,0-0.02,0"/>
<path class="st1" d="M8.33,31.45C8.33,31.45,8.33,31.45,8.33,31.45"/>
<path class="st1" d="M0.59,31.22c-0.01,0-0.01,0-0.02,0"/>
<path class="st1" d="M8.33,31.22C8.33,31.22,8.33,31.22,8.33,31.22"/>
<line class="st1" x1="0.59" y1="31.22" x2="0.6" y2="31.22"/>
<path class="st1" d="M0.57,10.91c0,0,0.01,0,0.02,0"/>
<line class="st1" x1="0.6" y1="10.91" x2="0.59" y2="10.91"/>
<line class="st1" x1="7.89" y1="10.91" x2="7.89" y2="10.87"/>
<line class="st1" x1="0.57" y1="10.91" x2="0.57" y2="10.68"/>
<path class="st1" d="M0.59,21.18c-0.01,0-0.01,0-0.02,0"/>
<path class="st1" d="M8.33,21.18C8.33,21.18,8.33,21.18,8.33,21.18"/>
<line class="st1" x1="0.59" y1="21.18" x2="0.6" y2="21.18"/>
<line class="st0" x1="20.46" y1="19.59" x2="20.46" y2="19.58"/>
<line class="st0" x1="20.46" y1="19.71" x2="20.45" y2="19.71"/>
<line class="st1" x1="15.53" y1="42.1" x2="15.53" y2="41.87"/>
<path class="st0" d="M20.51,37.35c0-0.01-0.01-0.02-0.01-0.03"/>
<path class="st0" d="M20.48,29.46c0,0,0,0.01,0,0.01"/>
<line class="st0" x1="20.49" y1="29.41" x2="20.49" y2="29.41"/>
<line class="st0" x1="20.45" y1="19.64" x2="20.46" y2="19.64"/>
<path class="st0" d="M20.51,11.88c0-0.01-0.01-0.02-0.01-0.03"/>
<path class="st0" d="M20.51,11.64c-0.01,0-0.01-0.01-0.02-0.01"/>
<path class="st0" d="M20.48,11.63c-0.01,0-0.01-0.01-0.02-0.01c-0.01,0-0.01-0.01-0.02-0.02"/>
<path class="st0" d="M20.45,11.6c0,0,0-0.01-0.01-0.01"/>
<line class="st1" x1="15.53" y1="41.87" x2="15.53" y2="41.87"/>
<path class="st1" d="M0.57,42.1c0,0,0.01,0,0.02,0"/>
<line class="st1" x1="0.59" y1="41.87" x2="0.6" y2="41.87"/>
<path class="st1" d="M8.33,42.1C8.33,42.1,8.33,42.1,8.33,42.1"/>
<line class="st1" x1="0.57" y1="42.1" x2="0.57" y2="41.87"/>
<path class="st1" d="M0.59,41.87c-0.01,0-0.01,0-0.02,0"/>
<path class="st1" d="M8.33,42.1C8.33,42.1,8.33,42.1,8.33,42.1"/>
<line class="st1" x1="0.59" y1="42.1" x2="0.6" y2="42.1"/>
<line class="st0" x1="20.45" y1="41.73" x2="20.45" y2="41.73"/>
<path class="st0" d="M20.5,41.28c0.01,0.01,0.01,0.03,0.01,0.05"/>
<line class="st1" x1="15.53" y1="24.5" x2="15.53" y2="24.5"/>
<path class="st1" d="M8.33,24.73C8.33,24.73,8.33,24.73,8.33,24.73"/>
<line class="st1" x1="15.53" y1="24.73" x2="15.53" y2="24.5"/>
<line class="st1" x1="0.57" y1="24.73" x2="0.57" y2="24.5"/>
<path class="st1" d="M0.59,24.73c-0.01,0-0.01,0-0.02,0"/>
<path class="st1" d="M8.33,24.73C8.33,24.73,8.33,24.73,8.33,24.73"/>
<line class="st1" x1="0.59" y1="24.73" x2="0.6" y2="24.73"/>
<path class="st1" d="M0.59,28.24c-0.01,0-0.01,0-0.02,0"/>
<path class="st1" d="M8.33,28.24C8.33,28.24,8.33,28.24,8.33,28.24"/>
<line class="st1" x1="0.59" y1="28.24" x2="0.6" y2="28.24"/>
<path class="st0" d="M20.46,41.81c0,0,0,0.05,0,0.08c0,0.02,0,0.04,0,0.04"/>
<path class="st1" d="M0.59,24.5c-0.01,0-0.01,0-0.02,0"/>
<path class="st1" d="M8.33,24.5C8.33,24.5,8.33,24.5,8.33,24.5"/>
<line class="st1" x1="0.59" y1="24.5" x2="0.6" y2="24.5"/>
<path class="st1" d="M0.57,21.41c0,0,0.01,0,0.02,0"/>
<line class="st1" x1="0.6" y1="21.41" x2="0.59" y2="21.41"/>
<line class="st1" x1="6.49" y1="21.41" x2="6.49" y2="21.24"/>
<line class="st1" x1="0.57" y1="21.41" x2="0.57" y2="21.18"/>
<line class="st0" x1="20.45" y1="19.58" x2="20.46" y2="19.58"/>
<polyline class="st0" points="20.48,7.72 20.48,7.72 20.48,7.72 "/>
<line class="st0" x1="20.48" y1="7.7" x2="20.48" y2="7.69"/>
<path class="st0" d="M20.42,6.92c0,0.02,0,0.05,0,0.07"/>
<line class="st0" x1="20.47" y1="7.67" x2="20.47" y2="7.66"/>
<line class="st1" x1="6.74" y1="28.24" x2="6.74" y2="24.73"/>
<line class="st1" x1="8" y1="28.24" x2="8" y2="24.73"/>
<path class="st0" d="M20.5,19.57c-0.01,0.02-0.02,0.04-0.02,0.06c0,0,0,0.01,0,0.02"/>
<line class="st1" x1="6.74" y1="31.22" x2="6.74" y2="28.47"/>
<line class="st1" x1="8" y1="31.22" x2="8" y2="28.47"/>
<line class="st0" x1="20.48" y1="19.65" x2="20.48" y2="19.64"/>
<path class="st0" d="M20.49,19.69c0-0.01-0.01-0.01-0.01-0.02"/>
<path class="st0" d="M20.5,37.16c0.01-0.01,0.01-0.02,0.01-0.03c0.01-0.01,0-0.02-0.01-0.02c-0.01,0-0.01-0.01-0.02-0.01
	c0,0,0,0,0,0"/>
<path class="st0" d="M20.45,37.06c0,0,0-0.01-0.01-0.01"/>
<path class="st0" d="M20.42,19.91c0-0.01,0-0.02,0-0.03"/>
<line class="st0" x1="20.49" y1="19.63" x2="20.49" y2="19.64"/>
<path class="st0" d="M20.48,37.09c-0.01,0-0.01-0.01-0.02-0.01c-0.01,0-0.01-0.01-0.02-0.02"/>
<line class="st0" x1="20.48" y1="37.24" x2="20.48" y2="37.23"/>
<path class="st0" d="M20.51,29.29c-0.01,0-0.01-0.01-0.02-0.01"/>
<path class="st0" d="M20.48,29.27c-0.01,0-0.01-0.01-0.02-0.01c-0.01,0-0.01-0.01-0.02-0.02"/>
<path class="st0" d="M20.5,41.27C20.5,41.27,20.5,41.27,20.5,41.27c0-0.01,0-0.01-0.01-0.02"/>
<path class="st0" d="M20.42,41.97c0,0.03,0,0.05,0,0.07"/>
<line class="st0" x1="20.47" y1="41.31" x2="20.47" y2="41.29"/>
<path class="st0" d="M20.5,37.25c0,0.01,0,0.02-0.01,0.03"/>
<path class="st0" d="M20.46,37.19c0,0.01,0,0.03,0,0.06"/>
<line class="st0" x1="20.5" y1="37.16" x2="20.5" y2="37.16"/>
<path class="st0" d="M20.47,37.24c0,0-0.01,0-0.01,0"/>
<line class="st0" x1="20.46" y1="11.72" x2="20.46" y2="11.71"/>
<path class="st0" d="M8,46.43c0.02,0.02,0.03,0.05,0.05,0.07c0.01,0.01,0.01,0.02,0.02,0.03"/>
<path class="st0" d="M19.19,2.57c-0.03-0.04-0.05-0.07-0.07-0.11"/>
<path class="st0" d="M20.45,25.52c0.17,0.03,0.34,0.04,0.51,0.04"/>
<path class="st0" d="M19.19,24.1c-0.09,0.12-0.14,0.24-0.14,0.39"/>
<path class="st0" d="M19.05,24.5c0,0.15,0.05,0.27,0.14,0.39"/>
<path class="st0" d="M20.96,23.44c-0.17,0-0.34,0.02-0.51,0.04"/>
<line class="st0" x1="20.45" y1="11.71" x2="20.46" y2="11.71"/>
<line class="st0" x1="20.46" y1="11.84" x2="20.45" y2="11.84"/>
<path class="st0" d="M20.45,29.42c-0.01,0-0.01,0-0.02,0"/>
<path class="st0" d="M20.51,29.53c0-0.01-0.01-0.02-0.01-0.03"/>
<line class="st0" x1="20.46" y1="29.48" x2="20.45" y2="29.48"/>
<line class="st0" x1="20.45" y1="29.42" x2="20.46" y2="29.42"/>
<line class="st0" x1="20.46" y1="29.36" x2="20.46" y2="29.36"/>
<line class="st0" x1="20.45" y1="29.36" x2="20.46" y2="29.36"/>
<path class="st0" d="M20.49,19.79c0,0,0.01,0,0.01-0.01"/>
<path class="st0" d="M20.52,19.77c0,0,0-0.01,0-0.02"/>
<path class="st0" d="M20.51,19.75c0-0.01-0.01-0.02-0.01-0.03"/>
<path class="st0" d="M20.51,19.51c-0.01,0-0.01-0.01-0.02-0.01"/>
<path class="st0" d="M20.48,19.49c-0.01,0-0.01-0.01-0.02-0.01c-0.01,0-0.01-0.01-0.02-0.02"/>
<line class="st1" x1="15.53" y1="28.47" x2="15.53" y2="28.24"/>
<line class="st1" x1="15.53" y1="28.24" x2="15.53" y2="28.24"/>
<path class="st1" d="M0.57,28.47c0,0,0.01,0,0.02,0"/>
<line class="st1" x1="0.59" y1="28.24" x2="0.6" y2="28.24"/>
<path class="st1" d="M8.33,28.47C8.33,28.47,8.33,28.47,8.33,28.47"/>
<line class="st1" x1="7.89" y1="28.47" x2="7.89" y2="28.43"/>
<line class="st1" x1="0.57" y1="28.47" x2="0.57" y2="28.24"/>
<path class="st1" d="M8.33,28.47C8.33,28.47,8.33,28.47,8.33,28.47"/>
<line class="st1" x1="0.59" y1="28.47" x2="0.6" y2="28.47"/>
<path class="st0" d="M20.49,29.31c0.01,0,0.01,0.01,0.02,0.01"/>
<path class="st0" d="M20.52,29.33c0,0,0,0.01,0,0.02"/>
<path class="st0" d="M20.5,29.38c0,0.01,0,0.02-0.01,0.03"/>
<line class="st0" x1="20.51" y1="29.6" x2="20.5" y2="29.6"/>
<path class="st0" d="M20.46,7.15c0,0.01,0-0.01,0-0.02c0-0.01,0-0.01,0-0.02c0-0.01,0-0.02,0-0.03c0-0.02,0-0.04,0-0.06"/>
<path class="st1" d="M8.33,41.87C8.33,41.87,8.33,41.87,8.33,41.87"/>
<path class="st1" d="M8.33,15.96C8.33,15.96,8.33,15.96,8.33,15.96"/>
<line class="st1" x1="15.53" y1="31.45" x2="15.53" y2="31.22"/>
<line class="st1" x1="15.53" y1="31.22" x2="15.53" y2="31.22"/>
<line class="st1" x1="15.53" y1="15.73" x2="15.53" y2="15.73"/>
<line class="st1" x1="8.33" y1="31.22" x2="8.33" y2="31.45"/>
<line class="st1" x1="0.6" y1="31.45" x2="0.59" y2="31.45"/>
<path class="st1" d="M8.33,31.45C8.33,31.45,8.33,31.45,8.33,31.45"/>
<line class="st1" x1="0.57" y1="31.45" x2="0.57" y2="31.22"/>
<path class="st1" d="M8.33,15.73C8.33,15.73,8.33,15.73,8.33,15.73"/>
<line class="st0" x1="20.48" y1="11.77" x2="20.48" y2="11.77"/>
<line class="st1" x1="7.55" y1="10.68" x2="7.55" y2="10.91"/>
<line class="st1" x1="8.16" y1="10.68" x2="8.16" y2="10.91"/>
<line class="st1" x1="7.72" y1="10.68" x2="7.72" y2="10.91"/>
<line class="st1" x1="15.25" y1="10.68" x2="15.25" y2="10.91"/>
<line class="st1" x1="0.79" y1="10.91" x2="0.79" y2="10.68"/>
<line class="st1" x1="6.65" y1="21.18" x2="6.65" y2="21.41"/>
<line class="st1" x1="8.16" y1="21.18" x2="8.16" y2="21.41"/>
<line class="st1" x1="7.72" y1="21.18" x2="7.72" y2="21.41"/>
<line class="st1" x1="15.25" y1="21.18" x2="15.25" y2="21.4"/>
<line class="st1" x1="0.79" y1="21.41" x2="0.79" y2="21.18"/>
<line class="st0" x1="18.95" y1="47.19" x2="8.23" y2="47.19"/>
<line class="st0" x1="7.08" y1="45.88" x2="7.08" y2="3.12"/>
<line class="st1" x1="19.25" y1="1" x2="19.25" y2="48"/>
<line class="st1" x1="7.96" y1="1" x2="7.96" y2="46.53"/>
<line class="st1" x1="19.22" y1="6.83" x2="19.22" y2="23.78"/>
<line class="st1" x1="20.45" y1="23.82" x2="20.45" y2="25.23"/>
<polyline class="st1" points="19.22,25.23 19.22,23.82 19.22,23.79 "/>
<line class="st1" x1="20.45" y1="25.13" x2="19.32" y2="25.13"/>
<line class="st1" x1="19.32" y1="25.13" x2="19.32" y2="23.82"/>
<polyline class="st1" points="19.22,6.87 20.45,6.87 20.45,2.47 "/>
<line class="st1" x1="19.33" y1="6.83" x2="19.33" y2="42.17"/>
<line class="st0" x1="20.37" y1="42.17" x2="19.35" y2="42.17"/>
<polyline class="st0" points="20.37,42.17 20.37,6.83 19.35,6.83 19.35,42.17 "/>
<line class="st0" x1="20.23" y1="41.92" x2="19.22" y2="41.92"/>
<line class="st0" x1="20.23" y1="7.08" x2="19.22" y2="7.08"/>
<line class="st0" x1="20.23" y1="6.83" x2="20.23" y2="42.17"/>
<line class="st0" x1="20.22" y1="41.67" x2="20.22" y2="41.66"/>
<line class="st0" x1="19.35" y1="41.22" x2="19.46" y2="41.22"/>
<line class="st0" x1="19.46" y1="7.78" x2="19.35" y2="7.78"/>
<line class="st0" x1="20.15" y1="6.83" x2="20.15" y2="42.17"/>
<line class="st0" x1="20.14" y1="41.67" x2="20.22" y2="41.67"/>
<line class="st0" x1="20.22" y1="7.33" x2="20.15" y2="7.33"/>
<line class="st0" x1="19.84" y1="7.78" x2="19.84" y2="41.22"/>
<line class="st0" x1="20.11" y1="25.47" x2="20.11" y2="45.88"/>
<path class="st0" d="M20.44,37.05c0,0,0-0.01-0.01-0.01c0-0.01,0-0.01-0.01-0.02"/>
<path class="st0" d="M20.42,11.77c0.01,0,0.02,0,0.03,0"/>
<path class="st0" d="M20.37,11.53c0.02,0,0.03,0,0.06,0"/>
<path class="st0" d="M20.42,11.78c-0.02,0-0.03,0-0.05,0"/>
<path class="st0" d="M20.42,37.21c0,0.01,0,0.02,0,0.03"/>
<path class="st0" d="M20.42,29.7c-0.02,0-0.04,0-0.06,0"/>
<line class="st1" x1="7.89" y1="28.43" x2="7.89" y2="28.24"/>
<path class="st0" d="M20.49,29.52c0,0.01,0.01,0.02,0.01,0.03"/>
<path class="st0" d="M20.42,37.24c0,0,0.01,0,0.01,0"/>
<line class="st1" x1="8.33" y1="41.87" x2="8.33" y2="42.1"/>
<line class="st1" x1="7.89" y1="42.1" x2="7.89" y2="41.87"/>
<path class="st0" d="M20.37,37c0.02,0,0.03,0,0.06,0"/>
<line class="st1" x1="6.49" y1="41.93" x2="6.49" y2="41.87"/>
<path class="st0" d="M20.42,29.67c-0.02,0-0.03,0-0.05,0c0,0-0.01,0-0.01,0"/>
<line class="st1" x1="7.89" y1="31.45" x2="7.89" y2="31.22"/>
<line class="st1" x1="7.55" y1="42.1" x2="7.55" y2="41.87"/>
<path class="st0" d="M20.42,29.28c0,0.02,0,0.04,0,0.06c0,0.02,0,0.03,0,0.05"/>
<line class="st1" x1="8.33" y1="15.73" x2="8.33" y2="15.96"/>
<path class="st0" d="M20.42,37.24c0,0.01,0,0.02,0,0.03c0,0.02,0,0.03,0,0.05c0,0,0,0.01,0,0.01c0,0.02,0,0.04,0,0.06
	c0,0.01,0,0.02,0,0.04"/>
<path class="st0" d="M20.46,11.77c0.01,0,0.01,0,0.02,0"/>
<line class="st1" x1="6.49" y1="28.47" x2="6.49" y2="28.24"/>
<line class="st1" x1="8.33" y1="28.24" x2="8.33" y2="28.47"/>
<path class="st0" d="M20.37,19.44C20.37,19.44,20.37,19.44,20.37,19.44c0.02,0,0.04,0,0.06,0"/>
<path class="st0" d="M20.42,19.68c-0.02,0-0.04,0-0.06,0"/>
<path class="st0" d="M20.42,19.46c0,0,0-0.01,0-0.01"/>
<path class="st0" d="M20.37,29.18c0.02,0,0.03,0,0.06,0"/>
<path class="st0" d="M20.42,29.42c-0.02,0-0.04,0-0.06,0"/>
<path class="st0" d="M20.42,42.14c-0.02,0-0.03,0-0.05,0"/>
<path class="st0" d="M20.42,42.1c0,0.01,0,0.03,0,0.03c0,0.01,0,0.01,0,0.01"/>
<path class="st0" d="M20.45,41.73c0,0.02-0.01,0.04-0.01,0.06c0,0.01,0,0.03-0.01,0.04c0,0,0,0.01,0,0.01c0,0,0,0.01,0,0.01
	c0,0.01,0,0.01,0,0.02c0,0,0,0.01,0,0.01c0,0.01,0,0.02,0,0.03"/>
<path class="st0" d="M20.36,41.94c0,0,0-0.01,0-0.01"/>
<path class="st0" d="M20.42,19.92c0,0,0-0.01,0-0.02"/>
<path class="st0" d="M20.36,42.14c0,0,0-0.01,0-0.01c0-0.01,0-0.02,0-0.03"/>
<path class="st0" d="M20.49,19.75c0,0.01,0.01,0.01,0.01,0.02"/>
<path class="st0" d="M20.48,11.86c0,0,0,0.01,0,0.01"/>
<path class="st0" d="M20.42,6.82c-0.02,0-0.03,0-0.05,0"/>
<path class="st0" d="M20.44,11.58c0,0,0-0.01-0.01-0.01c0-0.01,0-0.01-0.01-0.02"/>
<path class="st0" d="M19.19,24.01c0.26-0.28,0.57-0.39,0.92-0.48"/>
<line class="st0" x1="20.36" y1="41.75" x2="20.36" y2="41.75"/>
<path class="st0" d="M20.49,37.29c0,0-0.01,0.01-0.01,0.01c0,0.01-0.01,0.01,0,0.02"/>
<path class="st0" d="M8,2.57C7.79,2.88,7.45,3.08,7.08,3.12"/>
<line class="st1" x1="6.49" y1="24.73" x2="6.49" y2="24.5"/>
<path class="st0" d="M19.19,46.43c0.21-0.31,0.55-0.51,0.92-0.55"/>
<line class="st1" x1="8.33" y1="24.5" x2="8.33" y2="24.73"/>
<line class="st1" x1="7.89" y1="24.73" x2="7.89" y2="24.5"/>
<line class="st1" x1="6.74" y1="24.73" x2="6.74" y2="24.5"/>
<line class="st1" x1="7.55" y1="28.47" x2="7.55" y2="28.24"/>
<line class="st1" x1="6.74" y1="21.41" x2="6.74" y2="21.18"/>
<path class="st0" d="M20.36,7.72c0.03,0,0.05,0,0.08,0"/>
<line class="st1" x1="6.74" y1="15.96" x2="6.74" y2="15.73"/>
<line class="st1" x1="7.55" y1="31.45" x2="7.55" y2="31.22"/>
<line class="st1" x1="6.74" y1="10.91" x2="6.74" y2="10.68"/>
<line class="st1" x1="6.74" y1="42.1" x2="6.74" y2="41.87"/>
<line class="st1" x1="7.55" y1="24.73" x2="7.55" y2="24.5"/>
<line class="st1" x1="8" y1="24.73" x2="8" y2="24.5"/>
<path class="st0" d="M20.43,37.11c0,0.01,0,0.01,0.01,0.02c0,0,0,0.01,0.01,0.01"/>
<line class="st1" x1="8" y1="21.41" x2="8" y2="21.17"/>
<path class="st0" d="M20.43,29.24c0,0.01,0,0.01,0.01,0.02c0,0.01,0.01,0.02,0.01,0.02"/>
<line class="st1" x1="8" y1="15.95" x2="8" y2="15.73"/>
<path class="st0" d="M20.42,37.47c0,0.01,0,0.01,0,0.01"/>
<line class="st1" x1="8" y1="10.91" x2="8" y2="10.68"/>
<line class="st1" x1="8" y1="42.1" x2="8" y2="41.87"/>
<path class="st0" d="M20.45,37.24c-0.01,0-0.01,0-0.02,0"/>
<path class="st0" d="M20.42,19.89c-0.02,0-0.03,0-0.05,0c0,0,0,0,0,0"/>
<path class="st0" d="M20.46,19.64c0.01,0,0.01,0,0.02,0"/>
<line class="st0" x1="20.42" y1="29.69" x2="20.42" y2="29.69"/>
<path class="st0" d="M20.42,37.44c0,0.01,0,0.03,0,0.04"/>
<path class="st0" d="M20.11,23.53c0-6.8,0-13.61,0-20.41"/>
<line class="st0" x1="20.36" y1="19.83" x2="20.36" y2="19.83"/>
<path class="st0" d="M20.44,41.24c-0.03,0-0.05,0-0.08,0"/>
<path class="st0" d="M20.49,11.83c-0.01,0.01-0.01,0.02-0.01,0.03"/>
<path class="st0" d="M20.36,42.14c0.01,0,0.01,0,0.02,0"/>
<path class="st0" d="M20.48,29.48C20.48,29.48,20.48,29.48,20.48,29.48c0,0.02,0,0.02,0.01,0.03"/>
<polyline class="st0" points="20.36,6.83 20.36,6.83 20.36,6.84 "/>
<path class="st0" d="M20.44,11.67c0,0,0,0.01,0.01,0.01c0.01,0.01,0.01,0.01,0.02,0.02c0.01,0.01,0.02,0.01,0.02,0.01c0,0,0,0,0,0"
	/>
<path class="st0" d="M20.37,19.4c0.02,0,0.03,0,0.06,0"/>
<path class="st0" d="M20.42,7c0,0.01,0,0.01,0,0.02"/>
<path class="st0" d="M20.42,29.62c0,0.02,0,0.04,0,0.04"/>
<line class="st1" x1="8.06" y1="2.46" x2="6.74" y2="2.46"/>
<path class="st0" d="M20.42,19.64c-0.02,0-0.03,0-0.05,0"/>
<path class="st0" d="M20.11,25.47c-0.35-0.09-0.66-0.2-0.92-0.48"/>
<line class="st0" x1="20.36" y1="12.01" x2="20.36" y2="12.01"/>
<path class="st0" d="M20.42,12.02c-0.02,0-0.03,0-0.05,0c0,0-0.01,0-0.01,0"/>
<line class="st0" x1="20.36" y1="11.77" x2="20.36" y2="11.77"/>
<path class="st0" d="M8.23,1.81c0,0.23-0.05,0.44-0.16,0.64"/>
<path class="st0" d="M20.48,11.86c-0.04,0-0.07,0-0.11,0"/>
<line class="st1" x1="8.33" y1="10.68" x2="8.33" y2="10.91"/>
<line class="st1" x1="8.33" y1="21.18" x2="8.33" y2="21.41"/>
<line class="st0" x1="20.42" y1="37.44" x2="20.42" y2="37.43"/>
<path class="st0" d="M18.95,47.19c0-0.24,0.05-0.45,0.17-0.65"/>
<line class="st0" x1="20.36" y1="19.92" x2="20.36" y2="19.92"/>
<line class="st0" x1="20.36" y1="11.8" x2="20.36" y2="11.81"/>
<line class="st0" x1="20.36" y1="12.09" x2="20.36" y2="12.1"/>
<path class="st0" d="M20.43,11.64c0,0.01,0,0.01,0.01,0.02c0,0,0,0.01,0.01,0.01"/>
<path class="st0" d="M20.45,11.69c0,0,0.01,0.01,0.01,0.01c0.01,0.01,0.02,0.01,0.02,0.01"/>
<path class="st0" d="M20.36,11.62c0,0,0.01,0,0.01,0c0.02,0,0.03,0,0.05,0"/>
<path class="st0" d="M20.42,12.1c-0.02,0-0.04,0-0.06,0"/>
<line class="st1" x1="20.45" y1="2.46" x2="19.12" y2="2.46"/>
<line class="st1" x1="7.89" y1="21.41" x2="7.89" y2="21.18"/>
<path class="st0" d="M20.43,19.46c0,0.01,0,0.01,0.01,0.02c0,0,0,0.01,0.01,0.01"/>
<path class="st0" d="M20.45,19.51c0,0,0.01,0.01,0.01,0.01c0.01,0.01,0.02,0.01,0.02,0.01"/>
<line class="st0" x1="20.36" y1="19.76" x2="20.36" y2="19.77"/>
<path class="st0" d="M20.42,19.92c-0.02,0-0.04,0-0.06,0"/>
<path class="st0" d="M18.95,1.81c-3.57,0-7.15,0-10.72,0"/>
<line class="st0" x1="20.36" y1="37.41" x2="20.36" y2="37.41"/>
<path class="st0" d="M20.42,37.57c-0.02,0-0.04,0-0.06,0"/>
<line class="st1" x1="6.49" y1="21.24" x2="6.49" y2="21.18"/>
<path class="st0" d="M8.3,1.76c0.03,0.72-0.52,1.32-1.24,1.36"/>
<path class="st0" d="M20.36,6.83c0-0.01,0-0.01,0-0.01"/>
<path class="st0" d="M20.36,7.72c0,0,0-0.01,0-0.01c0,0,0,0,0,0"/>
<path class="st0" d="M20.45,29.29c0,0,0.01,0.01,0.01,0.01c0.01,0.01,0.02,0.01,0.02,0.01"/>
<line class="st1" x1="7.55" y1="21.41" x2="7.55" y2="21.18"/>
<path class="st0" d="M8.06,46.53c0.03,0.05,0.06,0.11,0.09,0.18c0.02,0.06,0.05,0.14,0.06,0.23c0.01,0.07,0.02,0.15,0.02,0.24"/>
<path class="st0" d="M20.42,12.1c0-0.02,0-0.05,0-0.09"/>
<path class="st0" d="M19.12,2.46c-0.12-0.21-0.17-0.41-0.17-0.65"/>
<path class="st0" d="M19.19,24.89c0.28,0.38,0.84,0.56,1.26,0.62"/>
<line class="st1" x1="7.89" y1="15.91" x2="7.89" y2="15.73"/>
<path class="st0" d="M20.45,19.46c0-0.01-0.01-0.02-0.01-0.02c0-0.01,0-0.01-0.01-0.02"/>
<path class="st0" d="M20.45,23.48c-0.41,0.07-0.98,0.24-1.26,0.62"/>
<line class="st1" x1="6.49" y1="15.79" x2="6.49" y2="15.73"/>
<path class="st0" d="M20.48,11.88c0,0.01,0,0.02,0.01,0.03c0,0,0,0.01,0.01,0.01"/>
<line class="st1" x1="8" y1="46.54" x2="6.74" y2="46.54"/>
<path class="st0" d="M20.42,19.64c0.01,0,0.02,0,0.03,0"/>
<line class="st1" x1="6.74" y1="31.45" x2="6.74" y2="31.22"/>
<path class="st0" d="M20.36,29.22c0,0,0.01,0,0.01,0c0.02,0,0.03,0,0.05,0"/>
<line class="st1" x1="6.74" y1="28.47" x2="6.74" y2="28.24"/>
<line class="st1" x1="8" y1="31.45" x2="8" y2="31.22"/>
<path class="st0" d="M20.36,29.69c0,0,0,0.01,0,0.01"/>
<line class="st1" x1="8" y1="28.47" x2="8" y2="28.24"/>
<line class="st0" x1="20.48" y1="19.66" x2="20.48" y2="19.65"/>
<line class="st1" x1="20.45" y1="46.54" x2="19.19" y2="46.54"/>
<line class="st1" x1="7.89" y1="10.87" x2="7.89" y2="10.68"/>
<path class="st0" d="M20.37,37.09C20.37,37.09,20.37,37.09,20.37,37.09c0.02,0,0.04,0,0.06,0"/>
<line class="st1" x1="6.49" y1="10.75" x2="6.49" y2="10.68"/>
<path class="st0" d="M20.42,29.46c-0.02,0-0.04,0-0.06,0"/>
<path class="st0" d="M20.45,12.04C20.45,12.04,20.45,12.04,20.45,12.04c-0.01,0.02-0.02,0.04-0.02,0.05c0,0.01,0,0.02,0,0.02"/>
<line class="st1" x1="6.49" y1="31.45" x2="6.49" y2="31.22"/>
<path class="st0" d="M20.42,37c0,0,0,0.01,0,0.02c0,0.01,0,0.02,0,0.02c0,0,0,0.01,0,0.01"/>
<path class="st0" d="M20.42,37.24c-0.02,0-0.04,0-0.06,0"/>
<path class="st0" d="M20.48,37.33c-0.04,0-0.08,0-0.12,0"/>
<line class="st0" x1="20.36" y1="11.63" x2="20.36" y2="11.63"/>
<path class="st0" d="M20.42,37.06c0,0.01,0,0.02,0,0.03c0,0,0,0.01,0,0.01"/>
<path class="st0" d="M20.46,29.42c0.01,0,0.01,0,0.02,0"/>
<line class="st0" x1="20.43" y1="29.42" x2="20.42" y2="29.42"/>
<path class="st0" d="M20.42,37.49c-0.02,0-0.03,0-0.05,0c0,0-0.01,0-0.01,0"/>
<line class="st1" x1="7.96" y1="46.5" x2="6.74" y2="46.5"/>
<line class="st1" x1="6.74" y1="2.44" x2="7.95" y2="2.44"/>
<line class="st1" x1="19.27" y1="2.44" x2="19.27" y2="1.01"/>
<line class="st1" x1="19.23" y1="42.13" x2="19.23" y2="41.93"/>
<line class="st1" x1="19.23" y1="7.08" x2="19.23" y2="6.87"/>
<line class="st1" x1="19.23" y1="2.5" x2="20.45" y2="2.5"/>
<line class="st1" x1="7.92" y1="46.56" x2="7.92" y2="47.99"/>
<path class="st0" d="M20.45,11.81c0,0.01,0,0.01,0,0.02c0,0,0,0.01,0,0c0-0.01,0-0.03,0-0.04c0-0.03,0-0.05,0-0.08"/>
<path class="st0" d="M20.36,11.75c0-0.01,0-0.02,0-0.03c0-0.01,0-0.02,0-0.03c0-0.01,0-0.02,0-0.03c0-0.01,0-0.02,0-0.02
	c0-0.01,0-0.02,0-0.02c0-0.01,0-0.01,0-0.02c0-0.01,0-0.01,0-0.02c0-0.01,0-0.01,0-0.02c0,0,0-0.01,0-0.01c0,0,0-0.01,0-0.01"/>
<path class="st0" d="M20.45,29.48c-0.01,0.02,0-0.02,0-0.03c0-0.01,0-0.02,0-0.03c0-0.02,0-0.04,0-0.06"/>
<polyline class="st0" points="20.36,29.61 20.36,29.61 20.36,29.61 "/>
<path class="st0" d="M20.36,29.61c0-0.01,0-0.01,0-0.02c0-0.01,0-0.01,0-0.02c0-0.01,0-0.01,0-0.02c0-0.01,0-0.02,0-0.02
	c0-0.01,0-0.02,0-0.03c0-0.01,0-0.02,0-0.03c0-0.01,0-0.02,0-0.03c0-0.01,0-0.02,0-0.02"/>
<path class="st0" d="M20.36,29.39c0-0.01,0-0.02,0-0.03c0-0.01,0-0.02,0-0.03c0-0.01,0-0.02,0-0.03c0-0.01,0-0.02,0-0.02
	c0-0.01,0-0.02,0-0.02c0-0.01,0-0.01,0-0.02c0-0.01,0-0.01,0-0.02c0-0.01,0-0.01,0-0.02c0,0,0-0.01,0-0.01c0,0,0-0.01,0-0.01"/>
<line class="st0" x1="20.36" y1="29.49" x2="20.36" y2="29.5"/>
<path class="st0" d="M20.45,37.3c0.02,0.01,0-0.02,0-0.03c0-0.01,0-0.02,0-0.03c0-0.02,0-0.04,0-0.06"/>
<path class="st0" d="M20.36,37.43c0-0.01,0-0.01,0-0.02c0-0.01,0-0.01,0-0.02c0-0.01,0-0.01,0-0.02c0-0.01,0-0.02,0-0.02
	c0-0.01,0-0.02,0-0.03c0-0.01,0-0.02,0-0.03c0-0.01,0-0.02,0-0.03c0-0.01,0-0.02,0-0.02"/>
<path class="st0" d="M20.36,37.21c0-0.01,0-0.02,0-0.03s0-0.02,0-0.03c0-0.01,0-0.02,0-0.03c0-0.01,0-0.02,0-0.02c0,0,0,0,0,0"/>
<path class="st0" d="M20.36,37.1c0,0,0-0.01,0-0.01c0,0,0,0,0,0"/>
<path class="st0" d="M20.36,37.08c0,0,0-0.01,0-0.01c0-0.01,0-0.01,0-0.02c0-0.01,0-0.01,0-0.02c0,0,0-0.01,0-0.01"/>
<line class="st0" x1="20.42" y1="7.01" x2="20.42" y2="7.01"/>
<polyline class="st0" points="20.5,7.71 20.49,7.72 20.49,7.72 "/>
<path class="st0" d="M20.42,7.09c0-0.02,0-0.04,0-0.04"/>
<path class="st0" d="M20.45,7.03c0.01-0.02,0,0.02,0,0.03c0,0.01,0,0.02,0,0.03c0,0.02,0,0.04,0,0.06"/>
<path class="st0" d="M20.36,7.11c0,0,0-0.01,0-0.01c0-0.01,0-0.01,0-0.02c0,0,0-0.01,0-0.01"/>
<path class="st0" d="M20.45,37.39c-0.02,0,0-0.02,0-0.03c0-0.01,0-0.02,0-0.03"/>
<path class="st0" d="M20.44,37.14c0,0,0,0.01,0.01,0.01c0.01,0.01,0.01,0.01,0.02,0.02c0.01,0.01,0.02,0.01,0.02,0.01
	c0.01,0,0.02,0.01,0.02,0.01c0.01,0,0.01,0.01,0.01,0.02c0,0.01-0.01,0.02-0.01,0.03"/>
<path class="st0" d="M20.5,37.27c0,0,0,0.01-0.01,0.01c0,0,0,0,0,0.01"/>
<path class="st0" d="M20.51,37.46C20.51,37.46,20.51,37.46,20.51,37.46c-0.01,0.01-0.02,0.01-0.02,0.01c-0.01,0-0.02,0.01-0.02,0.01
	c-0.01,0-0.01,0.01-0.02,0.02c-0.01,0.01-0.02,0.03-0.02,0.05c0,0.01,0,0.02,0,0.02"/>
<path class="st0" d="M20.49,37.4c0,0.01,0.01,0.01,0.01,0.02"/>
<line class="st0" x1="20.42" y1="37.56" x2="20.42" y2="37.55"/>
<path class="st0" d="M20.42,37.55c0-0.02,0-0.04,0-0.07"/>
<path class="st0" d="M20.49,37.4c0,0,0,0.01,0.01,0.01"/>
<polyline class="st0" points="20.36,37.51 20.36,37.51 20.36,37.5 20.36,37.49 "/>
<path class="st0" d="M20.46,29.52c0-0.01,0-0.02,0-0.03"/>
<path class="st0" d="M20.36,29.3C20.36,29.3,20.36,29.31,20.36,29.3c0,0.01,0,0.02,0,0.03c0,0.01,0,0.02,0,0.02
	c0,0.01,0,0.02,0,0.03c0,0,0,0,0,0"/>
<line class="st0" x1="20.36" y1="29.66" x2="20.36" y2="29.65"/>
<path class="st0" d="M20.46,19.7c0,0.03,0,0.04,0,0.04"/>
<path class="st0" d="M20.45,19.74c-0.01,0.02,0-0.02,0-0.03"/>
<line class="st0" x1="20.36" y1="19.91" x2="20.36" y2="19.91"/>
<line class="st0" x1="20.45" y1="11.8" x2="20.46" y2="11.8"/>
<polyline class="st0" points="20.36,12.05 20.36,12.04 20.36,12.03 20.36,12.02 "/>
<line class="st0" x1="20.48" y1="41.24" x2="20.48" y2="41.24"/>
<line class="st0" x1="20.48" y1="41.24" x2="20.48" y2="41.24"/>
<line class="st0" x1="20.36" y1="41.28" x2="20.36" y2="41.28"/>
<line class="st0" x1="20.48" y1="41.24" x2="20.48" y2="41.24"/>
<line class="st0" x1="20.48" y1="41.24" x2="20.48" y2="41.24"/>
<line class="st0" x1="20.36" y1="41.28" x2="20.36" y2="41.28"/>
<polyline class="st0" points="20.5,41.27 20.5,41.27 20.5,41.27 "/>
<line class="st0" x1="20.5" y1="41.26" x2="20.49" y2="41.25"/>
<line class="st0" x1="20.48" y1="41.24" x2="20.48" y2="41.24"/>
<line class="st0" x1="20.45" y1="41.73" x2="20.45" y2="41.73"/>
<path class="st0" d="M20.42,41.92c0,0.01,0,0.03,0,0.04"/>
<line class="st0" x1="20.36" y1="41.28" x2="20.36" y2="41.28"/>
<path class="st0" d="M20.43,41.86c0-0.01,0-0.01,0-0.02c0-0.04,0.01-0.07,0.02-0.11c0,0,0-0.01,0-0.01"/>
<polyline class="st0" points="20.5,41.28 20.5,41.27 20.5,41.27 "/>
<line class="st0" x1="20.5" y1="41.26" x2="20.49" y2="41.25"/>
<line class="st0" x1="20.48" y1="41.24" x2="20.48" y2="41.24"/>
<path class="st0" d="M20.45,41.73C20.45,41.73,20.45,41.73,20.45,41.73c-0.01,0.04-0.02,0.07-0.02,0.11c0,0.01,0,0.01,0,0.02"/>
<path class="st1" d="M8.16,24.5c0.05,0,0.09,0,0.14,0c0.01,0,0.02,0,0.03,0"/>
<path class="st1" d="M8.16,28.24c0.05,0,0.09,0,0.14,0c0.01,0,0.02,0,0.03,0"/>
<path class="st1" d="M0.81,28.47c0.1,0,0.58,0,1.06,0c1.57,0,3.1,0,4.62,0"/>
<path class="st1" d="M8.33,31.22c-0.26,0-0.52,0-0.78,0"/>
<path class="st1" d="M8.16,31.22c0.05,0,0.09,0,0.14,0c0.01,0,0.02,0,0.03,0"/>
<path class="st1" d="M8.33,31.45c-0.01,0-0.02,0-0.03,0c-0.05,0-0.1,0-0.14,0"/>
<line class="st1" x1="8.16" y1="31.33" x2="8.16" y2="31.32"/>
<path class="st1" d="M8.33,15.73c-0.06,0-0.12,0-0.17,0"/>
<path class="st1" d="M7.72,15.73c-0.06,0-0.12,0-0.18,0"/>
<path class="st1" d="M8.16,15.73c0.05,0,0.09,0,0.14,0c0.01,0,0.02,0,0.03,0"/>
<path class="st1" d="M8.33,15.96c1.97,0,3.94,0,5.95,0c0.47,0,0.93,0,0.97,0"/>
<path class="st1" d="M7.72,41.87c-0.06,0-0.12,0-0.17,0"/>
<line class="st1" x1="8.33" y1="41.87" x2="8.33" y2="41.87"/>
<path class="st1" d="M8.32,42.1c-0.01,0-0.02,0-0.03,0c-0.05,0-0.1,0-0.14,0"/>
<path class="st1" d="M0.81,42.1c0.1,0,0.58,0,1.06,0c1.56,0,3.1,0,4.62,0"/>
<path class="st1" d="M8.16,10.68c0.05,0,0.09,0,0.14,0c0.01,0,0.02,0,0.03,0"/>
<line class="st1" x1="8.33" y1="10.91" x2="8.33" y2="10.91"/>
<line class="st1" x1="6.49" y1="10.91" x2="6.49" y2="10.91"/>
<line class="st1" x1="8.33" y1="10.91" x2="8.33" y2="10.91"/>
<line class="st1" x1="6.49" y1="10.91" x2="6.49" y2="10.91"/>
<line class="st1" x1="6.49" y1="21.18" x2="6.49" y2="21.18"/>
<line class="st1" x1="8.33" y1="21.41" x2="8.33" y2="21.41"/>
<line class="st1" x1="6.49" y1="21.18" x2="6.49" y2="21.18"/>
<path class="st1" d="M0.81,21.41c0.1,0,0.58,0,1.06,0c1.62,0,3.2,0,4.78,0"/>
<path class="st1" d="M8.16,21.41c0.06,0,0.12,0,0.17,0"/>
<line class="st1" x1="6.5" y1="21.41" x2="6.49" y2="21.41"/>
<line class="st0" x1="19.05" y1="24.78" x2="19.05" y2="24.79"/>
<path class="st0" d="M8.09,46.58c-0.01-0.02-0.02-0.03-0.03-0.05"/>
<path class="st0" d="M19.1,2.42c0.02,0.03,0.03,0.06,0.05,0.08c0.05,0.08,0.09,0.14,0.14,0.19c0.12,0.14,0.25,0.23,0.37,0.29
	c0.15,0.08,0.3,0.12,0.45,0.14"/>
<line class="st0" x1="19.05" y1="24.79" x2="19.05" y2="24.79"/>
<line class="st0" x1="19.05" y1="24.79" x2="19.05" y2="24.79"/>
<path class="st0" d="M8.06,46.53c0.01,0.02,0.02,0.03,0.03,0.05"/>
<line class="st1" x1="7.96" y1="46.54" x2="7.96" y2="48"/>
<line class="st1" x1="7.96" y1="46.54" x2="7.96" y2="2.46"/>
<line class="st1" x1="7.96" y1="2.46" x2="7.96" y2="2.44"/>
<line class="st1" x1="7.96" y1="1.01" x2="7.96" y2="1"/>
<polyline class="st1" points="7.95,1 7.95,2.43 19.23,2.43 19.23,1 "/>
<line class="st1" x1="19.23" y1="48" x2="19.23" y2="46.54"/>
<line class="st1" x1="19.22" y1="23.79" x2="19.22" y2="42.17"/>
<polyline class="st1" points="19.22,23.82 20.45,23.82 20.45,23.79 19.23,23.79 "/>
<line class="st1" x1="20.45" y1="25.23" x2="19.22" y2="25.23"/>
<line class="st1" x1="19.22" y1="25.19" x2="20.45" y2="25.19"/>
<polyline class="st1" points="19.22,42.17 19.22,46.53 19.24,46.53 "/>
<line class="st1" x1="20.45" y1="42.13" x2="19.22" y2="42.13"/>
<polyline class="st1" points="19.23,2.47 19.22,2.47 19.22,6.83 "/>
<line class="st0" x1="19.46" y1="7.78" x2="19.46" y2="41.22"/>
<path class="st0" d="M20.11,3.12c-0.37-0.04-0.71-0.24-0.92-0.55"/>
<line class="st0" x1="20.36" y1="37.49" x2="20.36" y2="37.48"/>
<line class="st0" x1="20.36" y1="37.25" x2="20.36" y2="37.24"/>
<line class="st0" x1="20.36" y1="11.54" x2="20.36" y2="11.54"/>
<path class="st0" d="M7.08,45.88c0.15,0.02,0.3,0.06,0.45,0.14c0.12,0.06,0.25,0.16,0.37,0.29c0.03,0.04,0.06,0.08,0.09,0.12"/>
<line class="st0" x1="20.37" y1="11.86" x2="20.36" y2="11.86"/>
<line class="st0" x1="20.36" y1="37.56" x2="20.36" y2="37.57"/>
<line class="st0" x1="20.37" y1="6.82" x2="20.38" y2="6.82"/>
<path class="st0" d="M20.43,7.11c0,0,0,0.01,0,0.01c0,0,0,0.01,0,0.01c0,0.01,0,0.03,0.01,0.04c0,0.02,0.01,0.04,0.01,0.05"/>
<line class="st0" x1="20.37" y1="11.77" x2="20.36" y2="11.77"/>
<path class="st0" d="M20.43,37.47C20.43,37.47,20.43,37.47,20.43,37.47c0-0.02,0.01-0.03,0.02-0.05c0,0,0,0,0,0"/>
<path class="st0" d="M20.42,37.1c0,0.02,0,0.04,0,0.06c0,0.02,0,0.03,0,0.05"/>
<line class="st0" x1="20.36" y1="37.01" x2="20.36" y2="37"/>
<line class="st0" x1="20.47" y1="37.24" x2="20.48" y2="37.24"/>
<line class="st0" x1="20.36" y1="29.19" x2="20.36" y2="29.18"/>
<line class="st0" x1="20.36" y1="19.65" x2="20.36" y2="19.64"/>
<line class="st0" x1="20.37" y1="19.89" x2="20.36" y2="19.89"/>
<line class="st0" x1="20.37" y1="19.64" x2="20.36" y2="19.64"/>
<line class="st1" x1="19.27" y1="2.44" x2="19.23" y2="2.44"/>
<line class="st1" x1="7.96" y1="1.01" x2="7.97" y2="1.01"/>
<polyline class="st1" points="20.45,46.56 19.23,46.56 19.23,46.53 "/>
<line class="st1" x1="7.92" y1="46.56" x2="19.23" y2="46.56"/>
<path class="st0" d="M20.45,11.78c0,0.01,0,0.02,0,0.03"/>
<path class="st0" d="M20.45,19.64c0,0.02,0,0.04,0,0.06c0,0.02,0-0.02,0-0.03C20.45,19.66,20.45,19.65,20.45,19.64
	c0-0.02,0-0.04,0-0.06c0-0.02,0,0.02,0,0.03C20.45,19.62,20.45,19.63,20.45,19.64z"/>
<line class="st0" x1="20.36" y1="37.24" x2="20.36" y2="37.25"/>
<line class="st0" x1="20.42" y1="7.01" x2="20.42" y2="7.01"/>
<line class="st0" x1="20.36" y1="7.07" x2="20.36" y2="7.06"/>
<path class="st0" d="M20.42,6.82c-0.02,0-0.03,0-0.05,0"/>
<path class="st0" d="M20.42,6.87c0-0.01,0-0.02,0-0.03"/>
<line class="st0" x1="20.36" y1="7.07" x2="20.36" y2="7.06"/>
<line class="st0" x1="20.48" y1="7.72" x2="20.48" y2="7.72"/>
<line class="st0" x1="20.48" y1="7.72" x2="20.48" y2="7.72"/>
<line class="st0" x1="20.45" y1="7.16" x2="20.46" y2="7.16"/>
<path class="st0" d="M20.36,7.71c0,0,0-0.01,0-0.01c0,0,0-0.01,0-0.01"/>
<line class="st0" x1="20.46" y1="37.39" x2="20.45" y2="37.39"/>
<line class="st0" x1="20.45" y1="37.27" x2="20.46" y2="37.27"/>
<path class="st0" d="M20.45,37.33c0-0.01,0-0.02,0-0.02"/>
<path class="st0" d="M20.46,37.38c0-0.03,0-0.05,0-0.08"/>
<path class="st0" d="M20.5,37.41c0.01,0.01,0.01,0.02,0.01,0.03c0,0,0,0,0,0"/>
<path class="st0" d="M20.48,37.34c0,0.01,0,0.02,0.01,0.03c0,0,0,0,0,0.01"/>
<line class="st0" x1="20.48" y1="37.34" x2="20.48" y2="37.33"/>
<path class="st0" d="M20.48,37.33c0,0,0,0.01,0,0.01"/>
<path class="st0" d="M20.45,29.52c0,0,0-0.01,0-0.03"/>
<line class="st0" x1="20.46" y1="29.52" x2="20.45" y2="29.52"/>
<line class="st0" x1="20.45" y1="29.4" x2="20.46" y2="29.4"/>
<polyline class="st0" points="20.36,29.23 20.36,29.24 20.36,29.24 "/>
<line class="st0" x1="20.46" y1="19.74" x2="20.45" y2="19.74"/>
<line class="st0" x1="20.45" y1="19.62" x2="20.46" y2="19.62"/>
<polyline class="st0" points="20.36,19.52 20.36,19.51 20.36,19.5 "/>
<line class="st0" x1="20.46" y1="11.92" x2="20.45" y2="11.92"/>
<path class="st0" d="M20.46,11.86c0,0.04,0,0.06,0,0.06"/>
<path class="st0" d="M20.46,11.8c0,0,0,0.02,0,0.06"/>
<path class="st0" d="M20.45,11.92c0-0.03,0-0.05,0-0.08"/>
<line class="st0" x1="20.36" y1="11.86" x2="20.36" y2="11.86"/>
<line class="st0" x1="20.46" y1="41.81" x2="20.45" y2="41.81"/>
<line class="st0" x1="20.45" y1="41.93" x2="20.46" y2="41.93"/>
<path class="st0" d="M20.49,41.25c0,0,0.01,0.01,0.01,0.02"/>
<line class="st0" x1="20.48" y1="41.24" x2="20.48" y2="41.24"/>
<path class="st0" d="M20.42,41.87c0,0,0-0.01,0-0.01c0-0.01,0-0.01,0-0.02c0,0,0-0.01,0-0.01c0-0.01,0-0.03,0.01-0.04
	c0-0.02,0.01-0.04,0.01-0.06c0-0.01,0-0.02,0.01-0.02c0-0.02,0.01-0.04,0.01-0.06c0.01-0.03,0.02-0.07,0.02-0.1c0,0,0-0.01,0-0.01
	c0.01-0.03,0.01-0.07,0.02-0.1c0-0.02,0-0.03,0.01-0.05c0-0.02,0-0.05,0-0.07c0,0,0-0.01,0-0.01c0-0.02-0.01-0.03-0.01-0.04"/>
<path class="st0" d="M20.49,41.25c0,0,0.01,0.01,0.01,0.02"/>
<line class="st0" x1="20.48" y1="41.24" x2="20.48" y2="41.24"/>
<path class="st0" d="M20.49,41.25c0,0,0.01,0.01,0.01,0.02"/>
<line class="st1" x1="6.65" y1="24.5" x2="6.65" y2="24.73"/>
<line class="st1" x1="8.16" y1="24.5" x2="8.16" y2="24.73"/>
<line class="st1" x1="7.72" y1="24.5" x2="7.72" y2="24.73"/>
<line class="st1" x1="15.25" y1="24.5" x2="15.25" y2="24.73"/>
<line class="st1" x1="0.79" y1="24.73" x2="0.79" y2="24.5"/>
<line class="st1" x1="6.65" y1="28.24" x2="6.65" y2="28.47"/>
<line class="st1" x1="8.16" y1="28.24" x2="8.16" y2="28.47"/>
<line class="st1" x1="7.72" y1="28.24" x2="7.72" y2="28.47"/>
<line class="st1" x1="15.25" y1="28.24" x2="15.25" y2="28.47"/>
<line class="st1" x1="0.79" y1="28.47" x2="0.79" y2="28.24"/>
<line class="st1" x1="6.65" y1="31.22" x2="6.65" y2="31.45"/>
<line class="st1" x1="8.16" y1="31.22" x2="8.16" y2="31.45"/>
<line class="st1" x1="7.72" y1="31.22" x2="7.72" y2="31.45"/>
<line class="st1" x1="15.25" y1="31.22" x2="15.25" y2="31.45"/>
<line class="st1" x1="0.79" y1="31.45" x2="0.79" y2="31.22"/>
<line class="st1" x1="7.55" y1="15.73" x2="7.55" y2="15.96"/>
<path class="st1" d="M15.25,15.96c-0.03,0-0.29,0-0.55,0c-2.07,0-4.1,0-6.37,0"/>
<line class="st1" x1="6.65" y1="15.73" x2="6.65" y2="15.96"/>
<line class="st1" x1="8.16" y1="15.73" x2="8.16" y2="15.96"/>
<line class="st1" x1="7.72" y1="15.73" x2="7.72" y2="15.96"/>
<line class="st1" x1="15.25" y1="15.73" x2="15.25" y2="15.96"/>
<line class="st1" x1="0.79" y1="15.96" x2="0.79" y2="15.73"/>
<line class="st1" x1="6.65" y1="41.87" x2="6.65" y2="42.1"/>
<line class="st1" x1="8.16" y1="41.87" x2="8.16" y2="42.09"/>
<line class="st1" x1="7.72" y1="41.87" x2="7.72" y2="42.1"/>
<line class="st1" x1="15.25" y1="41.87" x2="15.25" y2="42.1"/>
<line class="st1" x1="0.79" y1="42.1" x2="0.79" y2="41.87"/>
<line class="st1" x1="6.65" y1="10.68" x2="6.65" y2="10.91"/>
</svg>
