<?xml version="1.0" encoding="utf-8"?>
<!-- Generator: Adobe Illustrator 25.2.3, SVG Export Plug-In . SVG Version: 6.00 Build 0)  -->
<svg version="1.1" id="圖層_1" xmlns="http://www.w3.org/2000/svg" xmlns:xlink="http://www.w3.org/1999/xlink" x="0px" y="0px"
	 viewBox="0 0 100 40" style="enable-background:new 0 0 100 40;" xml:space="preserve">
<style type="text/css">
	.st0{fill:none;stroke:#000000;stroke-linecap:round;stroke-linejoin:round;}
</style>
<line class="st0" x1="99.8" y1="38" x2="0.2" y2="38"/>
<path class="st0" d="M0.2,38C0.09,38,0,37.91,0,37.8"/>
<path class="st0" d="M99.8,2c0.11,0,0.2,0.09,0.2,0.2"/>
<line class="st0" x1="100" y1="2.2" x2="100" y2="37.8"/>
<line class="st0" x1="0.2" y1="38" x2="0.2" y2="38"/>
<line class="st0" x1="99.8" y1="38" x2="99.8" y2="38"/>
<path class="st0" d="M0.02,37.89C0.01,37.86,0,37.83,0,37.8"/>
<path class="st0" d="M100,37.8c0,0.01,0,0.02,0,0.03c0,0.01,0,0.02-0.01,0.03c0,0.01-0.01,0.02-0.01,0.03
	c-0.01,0.01-0.01,0.02-0.02,0.03c-0.01,0.01-0.02,0.02-0.03,0.03c-0.01,0.01-0.02,0.01-0.03,0.02c-0.01,0.01-0.02,0.01-0.03,0.01
	c-0.01,0-0.02,0.01-0.03,0.01c-0.01,0-0.02,0-0.03,0"/>
<path class="st0" d="M0.2,38c-0.08,0-0.14-0.04-0.18-0.11"/>
<path class="st0" d="M99.8,2c0.08,0,0.14,0.04,0.18,0.11"/>
<line class="st0" x1="99.8" y1="2" x2="99.8" y2="2"/>
<path class="st0" d="M0,2.2C0,2.09,0.09,2,0.2,2"/>
<line class="st0" x1="0" y1="37.8" x2="0" y2="2.2"/>
<path class="st0" d="M1.8,36.2c0.01-0.01,0.02-0.02,0.03-0.03c0.01-0.01,0.02-0.02,0.03-0.03c0.01-0.01,0.02-0.02,0.03-0.03
	c0.01-0.01,0.02-0.02,0.03-0.03c0.01-0.01,0.02-0.02,0.03-0.03c0.01-0.01,0.01-0.01,0.02-0.02c0.01-0.01,0.01-0.01,0.01-0.01
	C2,36.01,2,36,2,36c0,0,0,0,0,0"/>
<path class="st0" d="M1.8,3.8c0.01,0.01,0.02,0.02,0.03,0.03c0.01,0.01,0.02,0.02,0.03,0.03C1.88,3.88,1.89,3.89,1.9,3.9
	c0.01,0.01,0.02,0.02,0.03,0.03c0.01,0.01,0.02,0.02,0.03,0.03c0.01,0.01,0.01,0.01,0.02,0.02c0.01,0.01,0.01,0.01,0.01,0.01
	C2,3.99,2,4,2,4c0,0,0,0,0,0"/>
<path class="st0" d="M98.2,3.8c-0.01,0.01-0.02,0.02-0.03,0.03c-0.01,0.01-0.02,0.02-0.03,0.03c-0.01,0.01-0.02,0.02-0.03,0.03
	c-0.01,0.01-0.02,0.02-0.03,0.03c-0.01,0.01-0.02,0.02-0.03,0.03c-0.01,0.01-0.01,0.01-0.02,0.02c-0.01,0.01-0.01,0.01-0.01,0.01
	C98,3.99,98,4,98,4c0,0,0,0,0,0"/>
<path class="st0" d="M98,36C98,36,98,36,98,36c0,0,0.01,0.01,0.01,0.01c0,0,0.01,0.01,0.01,0.01c0.01,0.01,0.01,0.01,0.02,0.02
	c0.01,0.01,0.02,0.02,0.03,0.03c0.01,0.01,0.02,0.02,0.03,0.03c0.01,0.01,0.02,0.02,0.03,0.03c0.01,0.01,0.02,0.02,0.03,0.03
	c0.01,0.01,0.02,0.02,0.03,0.03"/>
<line class="st0" x1="2" y1="36" x2="98" y2="36"/>
<line class="st0" x1="2" y1="4" x2="2" y2="36"/>
<line class="st0" x1="98" y1="4" x2="2" y2="4"/>
<line class="st0" x1="98" y1="36" x2="98" y2="4"/>
<line class="st0" x1="0.2" y1="2" x2="99.8" y2="2"/>
<path class="st0" d="M100,37.8c0,0.11-0.09,0.2-0.2,0.2"/>
</svg>
