<?xml version="1.0" encoding="utf-8"?>
<!-- Generator: Adobe Illustrator 25.2.3, SVG Export Plug-In . SVG Version: 6.00 Build 0)  -->
<svg version="1.1" id="圖層_1" xmlns="http://www.w3.org/2000/svg" xmlns:xlink="http://www.w3.org/1999/xlink" x="0px" y="0px"
	 viewBox="0 0 70 50" style="enable-background:new 0 0 70 50;" xml:space="preserve">
<style type="text/css">
	.st0{fill:#8CC63F;stroke:#000000;stroke-linecap:round;stroke-linejoin:round;}
	.st1{fill:#009245;stroke:#000000;stroke-linecap:round;stroke-linejoin:round;}
</style>
<rect x="15.5" y="5.5" class="st0" width="40" height="40"/>
<path class="st1" d="M42.13,47.55c-2.59-3.94-3.6-5.88-4.33-7.49c-0.73-1.61-1.18-2.88-1.54-4.12c-0.37-1.24-0.65-2.43-0.87-3.86
	c-0.22-1.43-0.38-3.09-0.3-6.02"/>
<path class="st1" d="M35.04,45.14c1.13-4.11,1.43-5.81,1.59-7.3c0.02-0.18,0.04-0.36,0.05-0.53"/>
<path class="st1" d="M33.75,28.93c-0.21,0.69-0.33,1.27-0.43,1.82c-0.21,1.15-0.29,2.16-0.31,3.24c-0.02,1.07,0.02,2.21,0.24,3.77
	s0.6,3.52,1.8,7.38"/>
<path class="st1" d="M35.08,26.06c2.2,0.45,3.38,0.97,4.4,1.55c1.03,0.58,1.91,1.22,2.8,1.98c0.89,0.76,1.78,1.62,2.66,2.65
	c0.88,1.02,1.76,2.21,2.44,3.18c0.68,0.97,1.18,1.74,1.35,3.25"/>
<path class="st1" d="M49.74,14.01c-1.38,0.35-2.63,0.75-3.74,1.17c-0.01,0-0.01,0-0.02,0.01c-1.2,0.46-2.22,0.96-3.11,1.5
	c-0.05,0.03-0.1,0.06-0.15,0.09c-1.04,0.65-1.91,1.37-2.68,2.07c-0.03,0.03-0.06,0.06-0.09,0.08c-0.81,0.74-1.5,1.45-2.09,2.19
	c-0.04,0.05-0.08,0.11-0.13,0.16c-0.61,0.78-1.1,1.57-1.52,2.34c-0.01,0.03-0.03,0.05-0.04,0.08c-0.45,0.82-0.82,1.6-1.09,2.37"/>
<path class="st1" d="M35.08,26.06c0.62,0.04,1.29-0.03,2.04-0.19c0.02-0.01,0.05-0.01,0.07-0.02c0.7-0.15,1.47-0.38,2.26-0.76
	c0.05-0.03,0.11-0.05,0.16-0.08c0.75-0.38,1.54-0.89,2.41-1.53c0.03-0.02,0.07-0.05,0.1-0.07c0.83-0.61,1.74-1.35,2.66-2.32
	c0.04-0.04,0.08-0.09,0.13-0.14c0.78-0.84,1.56-1.86,2.39-3.08c0-0.01,0.01-0.01,0.01-0.02c0.77-1.12,1.59-2.41,2.42-3.84"/>
<path class="st1" d="M44.61,23.81c1.13-0.63,2.31-1.39,3.78-2.56c1.57-1.25,3.49-2.98,6.94-6.93"/>
<path class="st1" d="M55.33,14.32c-3.2,0.72-5.32,1.31-6.88,1.82"/>
<path class="st1" d="M34.96,44.85c-0.17,0.46-0.35,0.96-0.55,1.49"/>
<path class="st1" d="M36.53,39.49c-0.16,0.83-0.4,1.83-0.83,3.18"/>
<path class="st1" d="M34.4,46.34c-1.51-3.5-2.11-5.48-2.44-7"/>
<path class="st1" d="M42.52,12.56c0.8-0.67,1.71-1.32,2.73-1.85"/>
<path class="st1" d="M35.08,26.33c-0.16,0.13-0.32,0.26-0.46,0.39"/>
<path class="st1" d="M28.19,44.56c1.75-1.75,2.99-3.76,3.87-5.41c0.22-0.41,0.42-0.8,0.6-1.16C32.84,37.63,33,37.3,33.15,37"/>
<path class="st1" d="M18.66,26.06c0.75-1.13,1.47-1.38,2.37-1.67c0.9-0.28,1.98-0.58,3.13-0.76c1.14-0.17,2.35-0.22,3.44-0.18
	c1.08,0.04,2.05,0.18,3.14,0.49c1.1,0.31,2.33,0.8,4.34,2.11"/>
<path class="st1" d="M35.08,26.06c-2.01,1.31-3.24,1.8-4.34,2.11c-1.1,0.31-2.06,0.45-3.08,0.5c-1.03,0.05-2.11,0.01-3.26-0.16
	c-1.14-0.17-2.35-0.49-3.31-0.77c-0.96-0.28-1.68-0.54-2.43-1.67"/>
<path class="st1" d="M20.95,12.87c2.26,4.03,3.53,5.81,4.58,7.11s1.89,2.13,2.71,2.83c0.82,0.71,1.62,1.29,2.61,1.83
	c0.98,0.54,2.14,1.04,4.24,1.41"/>
<path class="st1" d="M35.08,26.06c-1.04-2.55-1.77-3.81-2.49-4.86c-0.72-1.05-1.44-1.89-2.23-2.69c-0.79-0.8-1.66-1.56-2.92-2.43
	c-1.27-0.86-2.94-1.83-6.48-3.22"/>
<path class="st1" d="M41.41,35.04c-0.32-0.23-0.62-0.44-0.92-0.69c-0.29-0.24-0.59-0.5-0.89-0.78"/>
<path class="st1" d="M39.45,44.35c-0.97-0.48-1.34-1.2-1.79-2.18c-0.39-0.84-0.83-1.87-1.22-2.91"/>
<path class="st1" d="M30.7,4.16c0.99,0.7,1.36,1.59,1.81,2.79c0.45,1.2,0.99,2.72,1.42,4.2c0.43,1.48,0.75,2.92,0.99,4.33
	c0.24,1.4,0.41,2.77,0.48,4.3c0.04,0.84,0.06,1.73,0,2.86"/>
<path class="st1" d="M32.6,21.22c-0.05-0.13-0.1-0.26-0.15-0.39c-0.51-1.38-0.86-2.63-1.18-4.06s-0.61-3.06-0.8-4.63
	c-0.18-1.57-0.26-3.1-0.31-4.37c-0.05-1.28-0.06-2.3,0.53-3.61"/>
<path class="st1" d="M13.51,16.64c3.83-0.05,5.74,0.6,7.19,1.05c0.36,0.11,0.7,0.21,1.01,0.3c0.94,0.27,1.71,0.46,2.53,0.72
	c0.14,0.05,0.29,0.09,0.44,0.15"/>
<path class="st1" d="M35.43,21.08c0.03-0.16,0.06-0.32,0.09-0.47c0.25-1.3,0.56-2.36,0.95-3.44c0.39-1.08,0.86-2.18,1.43-3.27
	c0.17-0.32,0.35-0.64,0.53-0.95"/>
<path class="st1" d="M43.29,6.38c0.33,1.46,0.13,2.45-0.17,3.75s-0.71,2.89-1.17,4.35c-0.46,1.46-0.98,2.78-1.54,4.01
	c-0.01,0.02-0.02,0.05-0.03,0.07"/>
<path class="st1" d="M35.4,22.65c0.15-1.11,0.32-1.97,0.52-2.77c0.35-1.46,0.76-2.72,1.25-4c0.49-1.27,1.06-2.56,1.74-3.85
	c0.68-1.28,1.48-2.57,2.14-3.58c0.66-1.01,1.18-1.74,2.26-2.08"/>
<path class="st1" d="M53.91,39.69c-1.53,0.37-2.53,0.02-3.83-0.49c-0.42-0.17-0.87-0.35-1.34-0.55"/>
<path class="st1" d="M45.82,24.13c0.51,0.03,1.02,0.09,1.55,0.16c1.38,0.19,2.83,0.52,3.98,0.82c1.16,0.3,2.02,0.57,2.92,1.74"/>
<path class="st1" d="M45.03,12.82c1.14-0.69,2.44-1.36,3.89-1.91"/>
<path class="st1" d="M48.92,10.92c-0.51,1.64-1.02,2.84-1.5,3.77"/>
<path class="st1" d="M29.07,17.32c-0.01-0.03-0.02-0.05-0.03-0.08c-0.44-1.39-0.82-2.9-1.08-4.52c-0.26-1.62-0.41-3.35-0.49-4.75
	c-0.08-1.4-0.1-2.45,0.73-3.79"/>
<path class="st1" d="M28.21,4.18c0.97,0.5,1.52,1.09,1.99,1.82"/>
<path class="st1" d="M46.15,6.46c0.47,1.5,0.23,2.41-0.2,3.72c-0.42,1.31-1.03,3.03-1.7,4.57c-0.24,0.54-0.48,1.06-0.73,1.57"/>
<path class="st1" d="M15.16,18.38c0.08,0,0.16-0.01,0.24-0.01"/>
<path class="st1" d="M38.78,25.39c0.14-0.02,0.27-0.04,0.4-0.06c0.27-0.04,0.53-0.07,0.78-0.09c0.76-0.07,1.45-0.09,2.14-0.06
	c0.46,0.02,0.91,0.05,1.38,0.11c0.46,0.05,0.94,0.12,1.49,0.22c0.83,0.15,1.83,0.39,3.25,0.77c0.47,0.13,0.99,0.27,1.54,0.43
	c2.2,0.66,4.96,1.66,7.62,3.35c-3.75,1.07-5.71,0.94-7.2,0.89c-0.37-0.01-0.71-0.02-1.03-0.02c-0.96-0.01-1.74,0-2.58-0.04
	c-0.56-0.03-1.15-0.08-1.74-0.15c-0.5-0.06-1.01-0.14-1.51-0.24L49,26.2c1.1,0.16,2.41,0.38,4.16,0.73c0.67,0.13,1.4,0.28,2.19,0.45
	c3.14,0.68,7.07,1.71,10.86,3.45c-5.34,1.1-8.14,0.96-10.26,0.92c-0.53-0.01-1.02-0.02-1.47-0.02c-1.37-0.01-2.48,0-3.67-0.04
	c-0.8-0.03-1.63-0.08-2.48-0.16c-0.73-0.07-1.46-0.15-2.18-0.24l-0.71-0.47c1.13,0.74,2.29,1.58,3.37,2.49
	c1.29,1.08,2.45,2.26,3.34,3.2c0.89,0.94,1.51,1.64,1.76,3.19"/>
<path class="st1" d="M35.81,26.22c0.24-0.09,0.47-0.17,0.69-0.24"/>
<line class="st1" x1="39.36" y1="11.2" x2="33.94" y2="11.2"/>
<line class="st1" x1="48.22" y1="11.2" x2="45.62" y2="11.2"/>
<line class="st1" x1="55.16" y1="45.6" x2="55.16" y2="31.72"/>
<path class="st1" d="M17.39,16.88c-0.85-0.98-1.85-2.2-3.05-3.74"/>
<path class="st1" d="M14.33,13.14c4.58,1.3,6.8,2.14,8.49,2.93"/>
<path class="st1" d="M28.57,32.7c-0.26,0.45-0.51,0.91-0.74,1.38c-0.25,0.51-0.48,1.02-0.67,1.51c-0.29,0.74-0.52,1.45-0.82,2.32
	c-0.1,0.29-0.21,0.6-0.33,0.93c-0.5,1.33-1.22,3.06-1.36,6.9c1.45-1.05,2.66-2.19,3.66-3.3l-0.11,2.11c0.08-3.58,0.6-5.34,0.95-6.67
	c0.09-0.33,0.17-0.64,0.24-0.93c0.21-0.86,0.37-1.55,0.58-2.27c0.14-0.48,0.3-0.98,0.47-1.47c0.18-0.49,0.37-0.98,0.57-1.45
	c0.28-0.64,0.57-1.23,0.91-1.82l3.17-3.88c-1.32,1.88-2.32,3.03-3.21,3.92c-0.22,0.22-0.44,0.43-0.65,0.62
	c-0.64,0.59-1.26,1.09-1.88,1.55c-0.41,0.31-0.83,0.59-1.26,0.87s-0.87,0.54-1.39,0.83c-0.78,0.43-1.73,0.91-3.06,1.54
	c-0.45,0.21-0.94,0.43-1.46,0.66c-2.11,0.92-4.85,1.92-7.9,2.29"/>
<path class="st1" d="M21.64,31.05c0.4-1.32,0.94-1.78,1.68-2.35c0.13-0.1,0.27-0.21,0.41-0.31l2.14,0.27
	c-0.36,0.21-0.73,0.43-1.09,0.66c-0.58,0.36-1.14,0.74-1.64,1.1c-0.75,0.54-1.35,1.03-2.13,1.64c-0.26,0.2-0.54,0.42-0.85,0.65
	c-1.25,0.93-3.01,2.16-5.89,5.64l0.94-1.11c-2.94,0.89-6.57,1.79-10.39,2.11c4.1-3.59,6.61-4.85,8.48-5.85
	c0.47-0.25,0.89-0.49,1.29-0.71c1.2-0.67,2.15-1.22,3.21-1.78c0.71-0.37,1.46-0.73,2.24-1.08c0.43-0.19,0.86-0.38,1.29-0.56
	l1.18,0.03c-1.19,0-2.44-0.07-3.65-0.2c-1.67-0.19-3.29-0.52-4.55-0.8c-1.26-0.28-2.17-0.52-3.23-1.68"/>
<path class="st1" d="M42,23.5c0.69,0,1.41,0.06,2.18,0.21c0.99,0.19,2.06,0.53,2.86,0.82c0.8,0.29,1.34,0.52,1.97,1.66"/>
<path class="st1" d="M49,26.19c-0.05,0.09-0.1,0.17-0.15,0.25"/>
<path class="st1" d="M18.18,24.31c-0.7-0.27-1.49-0.58-2.4-0.95c-0.63-0.26-1.32-0.54-2.06-0.86c-2.95-1.27-6.6-3.04-9.99-5.48
	c5.45-0.05,8.17,0.62,10.24,1.08c0.52,0.11,0.99,0.21,1.44,0.3c0.01,0,0.02,0,0.04,0.01l-1.94-1.77c2.49,2.46,5.04,4.16,7.07,5.37
	c0.51,0.3,0.99,0.57,1.42,0.82c0.62,0.35,1.17,0.64,1.65,0.89l-1.33,0.3c-1.13,0.01-2.3,0.07-3.42,0.2
	c-1.63,0.18-3.17,0.49-4.45,0.78c-1.28,0.29-2.31,0.55-3.38,1.71"/>
<path class="st1" d="M25.36,14.83c-0.3-1.24-0.6-2.88-0.93-5.2"/>
<path class="st1" d="M24.42,9.63c1.53,1.2,2.66,2.14,3.52,2.93"/>
<path class="st1" d="M35.41,20c0.21-0.62,0.45-1.21,0.71-1.78"/>
<path class="st1" d="M21.62,17.96c1.06-0.05,1.87,0.03,2.53,0.16"/>
<path class="st1" d="M40.75,45.41c-0.02,0.04-0.05,0.08-0.07,0.11"/>
<path class="st1" d="M21.94,31.33c-0.1-0.08-0.19-0.18-0.3-0.28"/>
<line class="st1" x1="20.76" y1="36.63" x2="20.76" y2="40"/>
<line class="st1" x1="49.56" y1="15.79" x2="49.56" y2="14.31"/>
<line class="st1" x1="49.56" y1="14.06" x2="49.56" y2="11.2"/>
<line class="st1" x1="55.16" y1="14.36" x2="55.16" y2="5.6"/>
<line class="st1" x1="15.16" y1="28.58" x2="15.16" y2="32.48"/>
<line class="st1" x1="15.16" y1="38.22" x2="15.16" y2="45.6"/>
<line class="st1" x1="34.68" y1="45.6" x2="40.87" y2="45.6"/>
<line class="st1" x1="44.09" y1="45.6" x2="55.16" y2="45.6"/>
<line class="st1" x1="31.59" y1="40" x2="32.11" y2="40"/>
<line class="st1" x1="43" y1="40" x2="49.56" y2="40"/>
<path class="st1" d="M35.08,26.06c0.1,0.11,0.19,0.22,0.28,0.32"/>
<path class="st1" d="M28.04,9.46c1.05,1.13,1.84,2.05,2.46,2.82"/>
<path class="st1" d="M34.92,26.46c-0.02-0.03-0.03-0.07-0.05-0.1"/>
<path class="st1" d="M29.4,17.6c-0.05-0.17-0.1-0.35-0.15-0.53c-0.4-1.48-0.8-3.44-1.21-7.61"/>
<path class="st1" d="M35.27,26.1c0-0.01-0.01-0.02-0.01-0.03"/>
<path class="st1" d="M39.71,43.71c-0.07,0.2-0.16,0.41-0.26,0.63"/>
<path class="st1" d="M36.45,27.69c0.77,1,1.26,1.8,1.68,2.58c0.63,1.16,1.11,2.28,1.55,3.5c0.44,1.21,0.84,2.52,1.24,4.39
	c0.4,1.87,0.81,4.32,1.21,9.38L42,46.01c0.69,0.82,1.51,1.74,2.49,2.81c-0.57-5.22-1.15-7.73-1.73-9.66
	c-0.57-1.91-1.13-3.24-1.75-4.48l-1.59-1.59c0.26,0.28,0.52,0.56,0.79,0.83c0.83,0.83,1.75,1.63,2.78,2.37
	c1.02,0.73,2.15,1.4,3.06,1.9c0.91,0.5,1.61,0.84,2.69,0.48"/>
<line class="st1" x1="35.33" y1="25.43" x2="35.32" y2="25.42"/>
<path class="st1" d="M35.35,25.38c-0.01,0.01-0.02,0.03-0.03,0.04"/>
<path class="st1" d="M45.24,10.71c-0.72,3.2-1.44,4.68-2,5.76"/>
<path class="st1" d="M35.04,26.36c0.01-0.1,0.03-0.2,0.04-0.3"/>
<path class="st1" d="M15.32,31.84c0.57-1.35,1.34-1.84,2.39-2.42c0.18-0.1,0.36-0.2,0.55-0.3"/>
<line class="st1" x1="27.76" y1="11.2" x2="26.37" y2="11.2"/>
<line class="st1" x1="27.59" y1="5.6" x2="15.16" y2="5.6"/>
<path class="st1" d="M40.68,45.53c-1.39-0.49-1.91-1.24-2.55-2.24c-0.56-0.87-1.2-1.95-1.76-3.03"/>
<path class="st1" d="M35.43,21.02c0.01-0.03,0.02-0.06,0.03-0.09"/>
<path class="st1" d="M43.46,8.03c0.72-0.74,1.45-1.29,2.69-1.57"/>
<line class="st1" x1="15.16" y1="18.17" x2="15.16" y2="18.35"/>
<line class="st1" x1="49.56" y1="24.69" x2="49.56" y2="20.27"/>
<line class="st1" x1="55.16" y1="27.33" x2="55.16" y2="14.51"/>
<line class="st1" x1="49.56" y1="33.95" x2="49.56" y2="31.62"/>
<line class="st1" x1="30.25" y1="5.6" x2="29.92" y2="5.6"/>
<path class="st1" d="M35.4,22.5c0.01-0.01,0.01-0.03,0.02-0.04"/>
<path class="st1" d="M54.27,26.85c-0.07,0.09-0.14,0.17-0.21,0.25"/>
<path class="st1" d="M15.76,32.14c-0.14-0.09-0.29-0.19-0.44-0.3"/>
<line class="st1" x1="24.66" y1="11.2" x2="20.76" y2="11.2"/>
<line class="st1" x1="15.16" y1="23.11" x2="15.16" y2="24.84"/>
<line class="st1" x1="15.16" y1="37.26" x2="15.16" y2="37.3"/>
<line class="st1" x1="15.16" y1="14.19" x2="15.16" y2="16.67"/>
<line class="st1" x1="24.84" y1="45.6" x2="34.09" y2="45.6"/>
<line class="st1" x1="49.56" y1="40" x2="49.56" y2="38.99"/>
<line class="st1" x1="49.56" y1="11.2" x2="48.84" y2="11.2"/>
<line class="st1" x1="20.76" y1="11.2" x2="20.76" y2="15.19"/>
<line class="st1" x1="15.16" y1="5.6" x2="15.16" y2="13.37"/>
<line class="st1" x1="15.16" y1="45.6" x2="24.65" y2="45.6"/>
<line class="st1" x1="20.76" y1="40" x2="25.58" y2="40"/>
<line class="st1" x1="55.16" y1="5.6" x2="31.93" y2="5.6"/>
</svg>
