<?xml version="1.0" encoding="utf-8"?>
<!-- Generator: Adobe Illustrator 25.2.3, SVG Export Plug-In . SVG Version: 6.00 Build 0)  -->
<svg version="1.1" id="圖層_1" xmlns="http://www.w3.org/2000/svg" xmlns:xlink="http://www.w3.org/1999/xlink" x="0px" y="0px"
	 viewBox="0 0 500 330" style="enable-background:new 0 0 500 330;" xml:space="preserve">
<style type="text/css">
	.st0{fill:none;stroke:#000000;stroke-width:3;stroke-linecap:round;stroke-linejoin:round;}
	.st1{stroke:#000000;stroke-width:3;stroke-linecap:round;stroke-linejoin:round;}
</style>
<line class="st0" x1="485.5" y1="104.5" x2="500.5" y2="104.5"/>
<polyline class="st0" points="15.5,224.5 0.5,224.5 0.5,-0.5 500.5,-0.5 500.5,329.5 0.5,329.5 "/>
<line class="st0" x1="15.5" y1="209.5" x2="15.5" y2="224.5"/>
<line class="st0" x1="0.5" y1="314.5" x2="0.5" y2="329.5"/>
<path class="st0" d="M90.5,314.5c0-23.87-9.48-46.76-26.36-63.64C47.26,233.98,24.37,224.5,0.5,224.5"/>
<line class="st0" x1="485.5" y1="164.5" x2="500.5" y2="164.5"/>
<line class="st0" x1="485.5" y1="44.5" x2="500.5" y2="44.5"/>
<line class="st0" x1="485.5" y1="284.5" x2="500.5" y2="284.5"/>
<line class="st0" x1="485.5" y1="224.5" x2="500.5" y2="224.5"/>
<polyline class="st0" points="15.5,209.5 15.5,14.5 485.5,14.5 485.5,314.5 0.5,314.5 "/>
<rect x="0.5" y="-0.5" class="st1" width="15" height="225"/>
<rect x="15.5" y="-0.5" class="st1" width="470" height="15"/>
<rect x="485.5" y="-0.5" class="st1" width="14" height="45"/>
<rect x="485.5" y="284.5" class="st1" width="15" height="45"/>
<rect x="0.5" y="314.5" class="st1" width="485" height="15"/>
</svg>
