<?xml version="1.0" encoding="utf-8"?>
<!-- Generator: Adobe Illustrator 25.2.3, SVG Export Plug-In . SVG Version: 6.00 Build 0)  -->
<svg version="1.1" id="圖層_1" xmlns="http://www.w3.org/2000/svg" xmlns:xlink="http://www.w3.org/1999/xlink" x="0px" y="0px"
	 viewBox="0 0 180 60" style="enable-background:new 0 0 180 60;" xml:space="preserve">
<style type="text/css">
	.st0{fill:#CCCCCC;stroke:#1A1A1A;stroke-linecap:round;stroke-linejoin:round;}
	.st1{fill:#4D4D4D;stroke:#1A1A1A;stroke-linecap:round;stroke-linejoin:round;}
	.st2{fill:none;stroke:#1A1A1A;stroke-linecap:round;stroke-linejoin:round;}
</style>
<rect x="0.5" y="-0.5" class="st0" width="180" height="60"/>
<rect x="52.5" y="8.5" class="st1" width="76" height="14"/>
<line class="st2" x1="28.55" y1="15.86" x2="28.55" y2="16.46"/>
<line class="st2" x1="151.75" y1="15.66" x2="28.55" y2="15.66"/>
<line class="st2" x1="28.55" y1="15.86" x2="151.75" y2="15.86"/>
<line class="st2" x1="28.55" y1="16.46" x2="151.75" y2="16.46"/>
<line class="st2" x1="52.1" y1="16.46" x2="52.1" y2="22.11"/>
<line class="st2" x1="128.1" y1="15.66" x2="128.1" y2="8.39"/>
<line class="st2" x1="90.1" y1="8.39" x2="52.1" y2="8.39"/>
<line class="st2" x1="52.1" y1="8.39" x2="52.1" y2="15.66"/>
<line class="st2" x1="128.1" y1="8.39" x2="90.1" y2="8.39"/>
<line class="st2" x1="128.1" y1="22.11" x2="128.1" y2="16.45"/>
<line class="st2" x1="52.1" y1="22.11" x2="128.1" y2="22.11"/>
<line class="st2" x1="180.1" y1="-0.44" x2="0.1" y2="-0.44"/>
<line class="st2" x1="180.1" y1="59.56" x2="180.1" y2="-0.44"/>
<line class="st2" x1="0.1" y1="59.56" x2="180.1" y2="59.56"/>
<line class="st2" x1="0.1" y1="-0.44" x2="0.1" y2="59.56"/>
<path class="st2" d="M90.1,14.39c1.17,0,2.34,0.04,3.51,0.13"/>
<line class="st2" x1="101.1" y1="15.66" x2="101.1" y2="15.33"/>
<path class="st2" d="M96.85,15.15c-0.78-0.07-2.49-0.26-3.23-0.63"/>
<path class="st2" d="M86.59,14.52c-0.74,0.36-2.45,0.55-3.23,0.63"/>
<line class="st2" x1="96.98" y1="15.33" x2="101.1" y2="15.33"/>
<path class="st2" d="M96.85,15.15c0.05,0.04,0.13,0.1,0.13,0.18"/>
<path class="st2" d="M83.23,15.33c0-0.08,0.08-0.14,0.13-0.18"/>
<line class="st2" x1="79.1" y1="15.33" x2="83.23" y2="15.33"/>
<line class="st2" x1="79.1" y1="15.33" x2="79.1" y2="15.66"/>
<path class="st2" d="M91.47,14.06c-0.42,0.21-0.89,0.33-1.36,0.33"/>
<line class="st2" x1="28.55" y1="15.66" x2="28.55" y2="15.86"/>
<line class="st2" x1="151.75" y1="15.86" x2="151.75" y2="15.66"/>
<path class="st2" d="M86.59,14.52c1.17-0.1,2.34-0.13,3.51-0.13"/>
<line class="st2" x1="92.69" y1="12.91" x2="93.62" y2="14.52"/>
<line class="st2" x1="86.59" y1="14.52" x2="87.52" y2="12.91"/>
<line class="st2" x1="151.75" y1="16.46" x2="151.75" y2="15.86"/>
<path class="st2" d="M90.1,14.39c-1.52,0-2.8-1.14-2.98-2.65c-0.18-1.51,0.8-2.91,2.28-3.27c1.48-0.35,2.99,0.45,3.52,1.88
	c0.53,1.43-0.1,3.02-1.45,3.71"/>
</svg>
