{
    "asset" : {
        "generator" : "Khronos glTF Blender I/O v1.2.75",
        "version" : "2.0"
    },
    "scene" : 0,
    "scenes" : [
        {
            "name" : "Scene",
            "nodes" : [
                0,
                1,
                2,
                3
            ]
        }
    ],
    "nodes" : [
        {
            "mesh" : 0,
            "name" : "object_1",
            "rotation" : [
                0.7071068286895752,
                0,
                0,
                0.7071067094802856
            ]
        },
        {
            "mesh" : 1,
            "name" : "object_2",
            "rotation" : [
                0.7071068286895752,
                0,
                0,
                0.7071067094802856
            ]
        },
        {
            "mesh" : 2,
            "name" : "Cube.001",
            "rotation" : [
                0.7071068286895752,
                0,
                0,
                0.7071067094802856
            ]
        },
        {
            "mesh" : 3,
            "name" : "Cube.000",
            "rotation" : [
                0.7071068286895752,
                0,
                0,
                0.7071067094802856
            ]
        }
    ],
    "materials" : [
        {
            "doubleSided" : true,
            "emissiveFactor" : [
                0,
                0,
                0
            ],
            "name" : "diffuse_46_25_1_255",
            "pbrMetallicRoughness" : {
                "baseColorFactor" : [
                    0.04323237016797066,
                    0.025059156119823456,
                    0.0019115121103823185,
                    1
                ],
                "metallicFactor" : 0,
                "roughnessFactor" : 1
            }
        },
        {
            "doubleSided" : true,
            "emissiveFactor" : [
                0,
                0,
                0
            ],
            "name" : "diffuse_255_255_255_255",
            "pbrMetallicRoughness" : {
                "baseColorFactor" : [
                    0.7874122262001038,
                    0.7874122262001038,
                    0.7874122262001038,
                    1
                ],
                "metallicFactor" : 0,
                "roughnessFactor" : 1
            }
        },
        {
            "doubleSided" : true,
            "emissiveFactor" : [
                0,
                0,
                0
            ],
            "name" : "Material.002",
            "pbrMetallicRoughness" : {
                "baseColorFactor" : [
                    1,
                    1,
                    1,
                    0
                ],
                "metallicFactor" : 0,
                "roughnessFactor" : 1
            }
        }
    ],
    "meshes" : [
        {
            "name" : "object_1",
            "primitives" : [
                {
                    "attributes" : {
                        "POSITION" : 0,
                        "NORMAL" : 1,
                        "TEXCOORD_0" : 2
                    },
                    "indices" : 3,
                    "material" : 0
                }
            ]
        },
        {
            "name" : "object_2",
            "primitives" : [
                {
                    "attributes" : {
                        "POSITION" : 4,
                        "NORMAL" : 5,
                        "TEXCOORD_0" : 6
                    },
                    "indices" : 7,
                    "material" : 1
                }
            ]
        },
        {
            "name" : "Cube.001",
            "primitives" : [
                {
                    "attributes" : {
                        "POSITION" : 8,
                        "NORMAL" : 9,
                        "TEXCOORD_0" : 10
                    },
                    "indices" : 11,
                    "material" : 2
                }
            ]
        },
        {
            "name" : "Cube.000",
            "primitives" : [
                {
                    "attributes" : {
                        "POSITION" : 12,
                        "NORMAL" : 13,
                        "TEXCOORD_0" : 14
                    },
                    "indices" : 15,
                    "material" : 2
                }
            ]
        }
    ],
    "accessors" : [
        {
            "bufferView" : 0,
            "componentType" : 5126,
            "count" : 408,
            "max" : [
                93.0770034790039,
                110,
                0
            ],
            "min" : [
                -93.07684326171875,
                -110,
                -43.153846740722656
            ],
            "type" : "VEC3"
        },
        {
            "bufferView" : 1,
            "componentType" : 5126,
            "count" : 408,
            "type" : "VEC3"
        },
        {
            "bufferView" : 2,
            "componentType" : 5126,
            "count" : 408,
            "type" : "VEC2"
        },
        {
            "bufferView" : 3,
            "componentType" : 5123,
            "count" : 1074,
            "type" : "SCALAR"
        },
        {
            "bufferView" : 4,
            "componentType" : 5126,
            "count" : 9032,
            "max" : [
                84.61546325683594,
                102.38461303710938,
                -8.461538314819336
            ],
            "min" : [
                -84.61531066894531,
                -100.69230651855469,
                -21.153846740722656
            ],
            "type" : "VEC3"
        },
        {
            "bufferView" : 5,
            "componentType" : 5126,
            "count" : 9032,
            "type" : "VEC3"
        },
        {
            "bufferView" : 6,
            "componentType" : 5126,
            "count" : 9032,
            "type" : "VEC2"
        },
        {
            "bufferView" : 7,
            "componentType" : 5123,
            "count" : 44682,
            "type" : "SCALAR"
        },
        {
            "bufferView" : 8,
            "componentType" : 5126,
            "count" : 4671,
            "max" : [
                75.98036193847656,
                -65.4976577758789,
                -21.2540225982666
            ],
            "min" : [
                7.483732223510742,
                -99.97920989990234,
                -34.536399841308594
            ],
            "type" : "VEC3"
        },
        {
            "bufferView" : 9,
            "componentType" : 5126,
            "count" : 4671,
            "type" : "VEC3"
        },
        {
            "bufferView" : 10,
            "componentType" : 5126,
            "count" : 4671,
            "type" : "VEC2"
        },
        {
            "bufferView" : 11,
            "componentType" : 5123,
            "count" : 26880,
            "type" : "SCALAR"
        },
        {
            "bufferView" : 12,
            "componentType" : 5126,
            "count" : 4671,
            "max" : [
                0.9457352161407471,
                -64.43397521972656,
                -21.2540225982666
            ],
            "min" : [
                -66.9233627319336,
                -98.02395629882812,
                -34.536399841308594
            ],
            "type" : "VEC3"
        },
        {
            "bufferView" : 13,
            "componentType" : 5126,
            "count" : 4671,
            "type" : "VEC3"
        },
        {
            "bufferView" : 14,
            "componentType" : 5126,
            "count" : 4671,
            "type" : "VEC2"
        },
        {
            "bufferView" : 15,
            "componentType" : 5123,
            "count" : 26880,
            "type" : "SCALAR"
        }
    ],
    "bufferViews" : [
        {
            "buffer" : 0,
            "byteLength" : 4896,
            "byteOffset" : 0
        },
        {
            "buffer" : 0,
            "byteLength" : 4896,
            "byteOffset" : 4896
        },
        {
            "buffer" : 0,
            "byteLength" : 3264,
            "byteOffset" : 9792
        },
        {
            "buffer" : 0,
            "byteLength" : 2148,
            "byteOffset" : 13056
        },
        {
            "buffer" : 0,
            "byteLength" : 108384,
            "byteOffset" : 15204
        },
        {
            "buffer" : 0,
            "byteLength" : 108384,
            "byteOffset" : 123588
        },
        {
            "buffer" : 0,
            "byteLength" : 72256,
            "byteOffset" : 231972
        },
        {
            "buffer" : 0,
            "byteLength" : 89364,
            "byteOffset" : 304228
        },
        {
            "buffer" : 0,
            "byteLength" : 56052,
            "byteOffset" : 393592
        },
        {
            "buffer" : 0,
            "byteLength" : 56052,
            "byteOffset" : 449644
        },
        {
            "buffer" : 0,
            "byteLength" : 37368,
            "byteOffset" : 505696
        },
        {
            "buffer" : 0,
            "byteLength" : 53760,
            "byteOffset" : 543064
        },
        {
            "buffer" : 0,
            "byteLength" : 56052,
            "byteOffset" : 596824
        },
        {
            "buffer" : 0,
            "byteLength" : 56052,
            "byteOffset" : 652876
        },
        {
            "buffer" : 0,
            "byteLength" : 37368,
            "byteOffset" : 708928
        },
        {
            "buffer" : 0,
            "byteLength" : 53760,
            "byteOffset" : 746296
        }
    ],
    "buffers" : [
        {
            "byteLength" : 800056,
            "uri" : "data:application/octet-stream;base64,"
        }
    ]
}
