{
    "asset" : {
        "generator" : "Khronos glTF Blender I/O v1.2.75",
        "version" : "2.0"
    },
    "scene" : 0,
    "scenes" : [
        {
            "name" : "Scene",
            "nodes" : [
                0,
                1,
                2,
                3
            ]
        }
    ],
    "nodes" : [
        {
            "mesh" : 0,
            "name" : "object_1",
            "rotation" : [
                0.7071068286895752,
                0,
                0,
                0.7071067094802856
            ]
        },
        {
            "mesh" : 1,
            "name" : "object_2",
            "rotation" : [
                0.7071068286895752,
                0,
                0,
                0.7071067094802856
            ]
        },
        {
            "mesh" : 2,
            "name" : "object_3",
            "rotation" : [
                0.7071068286895752,
                0,
                0,
                0.7071067094802856
            ]
        },
        {
            "mesh" : 3,
            "name" : "object_4",
            "rotation" : [
                0.7071068286895752,
                0,
                0,
                0.7071067094802856
            ]
        }
    ],
    "materials" : [
        {
            "doubleSided" : true,
            "emissiveFactor" : [
                0,
                0,
                0
            ],
            "name" : "diffuse_128_128_128_255",
            "pbrMetallicRoughness" : {
                "baseColorFactor" : [
                    0.5019999742507935,
                    0.5019999742507935,
                    0.5019999742507935,
                    1
                ],
                "metallicFactor" : 0,
                "roughnessFactor" : 1
            }
        }
    ],
    "meshes" : [
        {
            "name" : "object_1",
            "primitives" : [
                {
                    "attributes" : {
                        "POSITION" : 0,
                        "NORMAL" : 1,
                        "TEXCOORD_0" : 2
                    },
                    "indices" : 3,
                    "material" : 0
                }
            ]
        },
        {
            "name" : "object_2",
            "primitives" : [
                {
                    "attributes" : {
                        "POSITION" : 4,
                        "NORMAL" : 5,
                        "TEXCOORD_0" : 6
                    },
                    "indices" : 7,
                    "material" : 0
                }
            ]
        },
        {
            "name" : "object_3",
            "primitives" : [
                {
                    "attributes" : {
                        "POSITION" : 8,
                        "NORMAL" : 9,
                        "TEXCOORD_0" : 10
                    },
                    "indices" : 11,
                    "material" : 0
                }
            ]
        },
        {
            "name" : "object_4",
            "primitives" : [
                {
                    "attributes" : {
                        "POSITION" : 12,
                        "NORMAL" : 13,
                        "TEXCOORD_0" : 14
                    },
                    "indices" : 15,
                    "material" : 0
                }
            ]
        }
    ],
    "accessors" : [
        {
            "bufferView" : 0,
            "componentType" : 5126,
            "count" : 7061,
            "max" : [
                27.175081253051758,
                24.99947738647461,
                -20
            ],
            "min" : [
                -26.499242782592773,
                -22.823022842407227,
                -40
            ],
            "type" : "VEC3"
        },
        {
            "bufferView" : 1,
            "componentType" : 5126,
            "count" : 7061,
            "type" : "VEC3"
        },
        {
            "bufferView" : 2,
            "componentType" : 5126,
            "count" : 7061,
            "type" : "VEC2"
        },
        {
            "bufferView" : 3,
            "componentType" : 5123,
            "count" : 40167,
            "type" : "SCALAR"
        },
        {
            "bufferView" : 4,
            "componentType" : 5126,
            "count" : 1595,
            "max" : [
                26.589876174926758,
                21.827075958251953,
                -20
            ],
            "min" : [
                -23.326847076416016,
                -26.626861572265625,
                -25
            ],
            "type" : "VEC3"
        },
        {
            "bufferView" : 5,
            "componentType" : 5126,
            "count" : 1595,
            "type" : "VEC3"
        },
        {
            "bufferView" : 6,
            "componentType" : 5126,
            "count" : 1595,
            "type" : "VEC2"
        },
        {
            "bufferView" : 7,
            "componentType" : 5123,
            "count" : 7566,
            "type" : "SCALAR"
        },
        {
            "bufferView" : 8,
            "componentType" : 5126,
            "count" : 78,
            "max" : [
                -0.2628679871559143,
                1.2431929111480713,
                -5
            ],
            "min" : [
                -2.7497048377990723,
                -1.2476798295974731,
                -20
            ],
            "type" : "VEC3"
        },
        {
            "bufferView" : 9,
            "componentType" : 5126,
            "count" : 78,
            "type" : "VEC3"
        },
        {
            "bufferView" : 10,
            "componentType" : 5126,
            "count" : 78,
            "type" : "VEC2"
        },
        {
            "bufferView" : 11,
            "componentType" : 5123,
            "count" : 216,
            "type" : "SCALAR"
        },
        {
            "bufferView" : 12,
            "componentType" : 5126,
            "count" : 7022,
            "max" : [
                23.592487335205078,
                25.092487335205078,
                0
            ],
            "min" : [
                -26.592487335205078,
                -25.092487335205078,
                -5.49029016494751
            ],
            "type" : "VEC3"
        },
        {
            "bufferView" : 13,
            "componentType" : 5126,
            "count" : 7022,
            "type" : "VEC3"
        },
        {
            "bufferView" : 14,
            "componentType" : 5126,
            "count" : 7022,
            "type" : "VEC2"
        },
        {
            "bufferView" : 15,
            "componentType" : 5123,
            "count" : 39390,
            "type" : "SCALAR"
        }
    ],
    "bufferViews" : [
        {
            "buffer" : 0,
            "byteLength" : 84732,
            "byteOffset" : 0
        },
        {
            "buffer" : 0,
            "byteLength" : 84732,
            "byteOffset" : 84732
        },
        {
            "buffer" : 0,
            "byteLength" : 56488,
            "byteOffset" : 169464
        },
        {
            "buffer" : 0,
            "byteLength" : 80334,
            "byteOffset" : 225952
        },
        {
            "buffer" : 0,
            "byteLength" : 19140,
            "byteOffset" : 306288
        },
        {
            "buffer" : 0,
            "byteLength" : 19140,
            "byteOffset" : 325428
        },
        {
            "buffer" : 0,
            "byteLength" : 12760,
            "byteOffset" : 344568
        },
        {
            "buffer" : 0,
            "byteLength" : 15132,
            "byteOffset" : 357328
        },
        {
            "buffer" : 0,
            "byteLength" : 936,
            "byteOffset" : 372460
        },
        {
            "buffer" : 0,
            "byteLength" : 936,
            "byteOffset" : 373396
        },
        {
            "buffer" : 0,
            "byteLength" : 624,
            "byteOffset" : 374332
        },
        {
            "buffer" : 0,
            "byteLength" : 432,
            "byteOffset" : 374956
        },
        {
            "buffer" : 0,
            "byteLength" : 84264,
            "byteOffset" : 375388
        },
        {
            "buffer" : 0,
            "byteLength" : 84264,
            "byteOffset" : 459652
        },
        {
            "buffer" : 0,
            "byteLength" : 56176,
            "byteOffset" : 543916
        },
        {
            "buffer" : 0,
            "byteLength" : 78780,
            "byteOffset" : 600092
        }
    ],
    "buffers" : [
        {
            "byteLength" : 678872,
            "uri" : "data:application/octet-stream;base64,"
        }
    ]
}
