{
    "asset" : {
        "generator" : "Khronos glTF Blender I/O v1.2.75",
        "version" : "2.0"
    },
    "scene" : 0,
    "scenes" : [
        {
            "name" : "Scene",
            "nodes" : [
                0,
                1,
                2,
                3,
                4,
                5,
                6,
                7,
                8
            ]
        }
    ],
    "nodes" : [
        {
            "mesh" : 0,
            "name" : "object_1",
            "rotation" : [
                0.7071068286895752,
                0,
                0,
                0.7071067094802856
            ]
        },
        {
            "mesh" : 1,
            "name" : "object_2",
            "rotation" : [
                0.7071068286895752,
                0,
                0,
                0.7071067094802856
            ]
        },
        {
            "mesh" : 2,
            "name" : "object_3",
            "rotation" : [
                0.7071068286895752,
                0,
                0,
                0.7071067094802856
            ]
        },
        {
            "mesh" : 3,
            "name" : "object_4",
            "rotation" : [
                0.7071068286895752,
                0,
                0,
                0.7071067094802856
            ]
        },
        {
            "mesh" : 4,
            "name" : "object_5",
            "rotation" : [
                0.7071068286895752,
                0,
                0,
                0.7071067094802856
            ]
        },
        {
            "mesh" : 5,
            "name" : "object_6",
            "rotation" : [
                0.7071068286895752,
                0,
                0,
                0.7071067094802856
            ]
        },
        {
            "mesh" : 6,
            "name" : "object_7",
            "rotation" : [
                0.7071068286895752,
                0,
                0,
                0.7071067094802856
            ]
        },
        {
            "mesh" : 7,
            "name" : "object_8",
            "rotation" : [
                0.7071068286895752,
                0,
                0,
                0.7071067094802856
            ]
        },
        {
            "mesh" : 8,
            "name" : "object_9",
            "rotation" : [
                0.7071068286895752,
                0,
                0,
                0.7071067094802856
            ]
        }
    ],
    "materials" : [
        {
            "doubleSided" : true,
            "emissiveFactor" : [
                0,
                0,
                0
            ],
            "name" : "diffuse_102_102_102_255",
            "pbrMetallicRoughness" : {
                "baseColorFactor" : [
                    0.4000000059604645,
                    0.4000000059604645,
                    0.4000000059604645,
                    1
                ],
                "metallicFactor" : 0,
                "roughnessFactor" : 1
            }
        },
        {
            "doubleSided" : true,
            "emissiveFactor" : [
                0,
                0,
                0
            ],
            "name" : "diffuse_255_255_255_255",
            "pbrMetallicRoughness" : {
                "baseColorFactor" : [
                    1,
                    1,
                    1,
                    1
                ],
                "metallicFactor" : 0,
                "roughnessFactor" : 1
            }
        }
    ],
    "meshes" : [
        {
            "name" : "object_1",
            "primitives" : [
                {
                    "attributes" : {
                        "POSITION" : 0,
                        "NORMAL" : 1,
                        "TEXCOORD_0" : 2
                    },
                    "indices" : 3,
                    "material" : 0
                }
            ]
        },
        {
            "name" : "object_2",
            "primitives" : [
                {
                    "attributes" : {
                        "POSITION" : 4,
                        "NORMAL" : 5,
                        "TEXCOORD_0" : 6
                    },
                    "indices" : 7,
                    "material" : 0
                }
            ]
        },
        {
            "name" : "object_3",
            "primitives" : [
                {
                    "attributes" : {
                        "POSITION" : 8,
                        "NORMAL" : 9,
                        "TEXCOORD_0" : 10
                    },
                    "indices" : 11,
                    "material" : 0
                }
            ]
        },
        {
            "name" : "object_4",
            "primitives" : [
                {
                    "attributes" : {
                        "POSITION" : 12,
                        "NORMAL" : 13,
                        "TEXCOORD_0" : 14
                    },
                    "indices" : 7,
                    "material" : 0
                }
            ]
        },
        {
            "name" : "object_5",
            "primitives" : [
                {
                    "attributes" : {
                        "POSITION" : 15,
                        "NORMAL" : 16,
                        "TEXCOORD_0" : 17
                    },
                    "indices" : 18,
                    "material" : 0
                }
            ]
        },
        {
            "name" : "object_6",
            "primitives" : [
                {
                    "attributes" : {
                        "POSITION" : 19,
                        "NORMAL" : 20,
                        "TEXCOORD_0" : 21
                    },
                    "indices" : 22,
                    "material" : 0
                }
            ]
        },
        {
            "name" : "object_7",
            "primitives" : [
                {
                    "attributes" : {
                        "POSITION" : 23,
                        "NORMAL" : 24,
                        "TEXCOORD_0" : 25
                    },
                    "indices" : 3,
                    "material" : 0
                }
            ]
        },
        {
            "name" : "object_8",
            "primitives" : [
                {
                    "attributes" : {
                        "POSITION" : 26,
                        "NORMAL" : 27,
                        "TEXCOORD_0" : 28
                    },
                    "indices" : 29,
                    "material" : 1
                }
            ]
        },
        {
            "name" : "object_9",
            "primitives" : [
                {
                    "attributes" : {
                        "POSITION" : 30,
                        "NORMAL" : 31,
                        "TEXCOORD_0" : 32
                    },
                    "indices" : 33,
                    "material" : 0
                }
            ]
        }
    ],
    "accessors" : [
        {
            "bufferView" : 0,
            "componentType" : 5126,
            "count" : 968,
            "max" : [
                -44.27926254272461,
                40.031307220458984,
                -44.29999923706055
            ],
            "min" : [
                -124.27926635742188,
                -39.968692779541016,
                -44.599998474121094
            ],
            "type" : "VEC3"
        },
        {
            "bufferView" : 1,
            "componentType" : 5126,
            "count" : 968,
            "type" : "VEC3"
        },
        {
            "bufferView" : 2,
            "componentType" : 5126,
            "count" : 968,
            "type" : "VEC2"
        },
        {
            "bufferView" : 3,
            "componentType" : 5123,
            "count" : 2868,
            "type" : "SCALAR"
        },
        {
            "bufferView" : 4,
            "componentType" : 5126,
            "count" : 6,
            "max" : [
                -122.27926635742188,
                -37.968692779541016,
                -42.29999923706055
            ],
            "min" : [
                -124.27926635742188,
                -39.968692779541016,
                -42.29999923706055
            ],
            "type" : "VEC3"
        },
        {
            "bufferView" : 5,
            "componentType" : 5126,
            "count" : 6,
            "type" : "VEC3"
        },
        {
            "bufferView" : 6,
            "componentType" : 5126,
            "count" : 6,
            "type" : "VEC2"
        },
        {
            "bufferView" : 7,
            "componentType" : 5123,
            "count" : 12,
            "type" : "SCALAR"
        },
        {
            "bufferView" : 8,
            "componentType" : 5126,
            "count" : 988,
            "max" : [
                -44.27926254272461,
                40.031307220458984,
                -0.30000001192092896
            ],
            "min" : [
                -124.27926635742188,
                -39.968692779541016,
                -44.29999923706055
            ],
            "type" : "VEC3"
        },
        {
            "bufferView" : 9,
            "componentType" : 5126,
            "count" : 988,
            "type" : "VEC3"
        },
        {
            "bufferView" : 10,
            "componentType" : 5126,
            "count" : 988,
            "type" : "VEC2"
        },
        {
            "bufferView" : 11,
            "componentType" : 5123,
            "count" : 2676,
            "type" : "SCALAR"
        },
        {
            "bufferView" : 12,
            "componentType" : 5126,
            "count" : 6,
            "max" : [
                122.73693084716797,
                40.031307220458984,
                -42
            ],
            "min" : [
                120.73693084716797,
                38.031307220458984,
                -42
            ],
            "type" : "VEC3"
        },
        {
            "bufferView" : 13,
            "componentType" : 5126,
            "count" : 6,
            "type" : "VEC3"
        },
        {
            "bufferView" : 14,
            "componentType" : 5126,
            "count" : 6,
            "type" : "VEC2"
        },
        {
            "bufferView" : 15,
            "componentType" : 5126,
            "count" : 988,
            "max" : [
                122.73693084716797,
                40.031307220458984,
                0
            ],
            "min" : [
                42.7369270324707,
                -39.968692779541016,
                -44
            ],
            "type" : "VEC3"
        },
        {
            "bufferView" : 16,
            "componentType" : 5126,
            "count" : 988,
            "type" : "VEC3"
        },
        {
            "bufferView" : 17,
            "componentType" : 5126,
            "count" : 988,
            "type" : "VEC2"
        },
        {
            "bufferView" : 18,
            "componentType" : 5123,
            "count" : 2676,
            "type" : "SCALAR"
        },
        {
            "bufferView" : 19,
            "componentType" : 5126,
            "count" : 6,
            "max" : [
                122.73693084716797,
                -37.968692779541016,
                -42
            ],
            "min" : [
                120.73693084716797,
                -39.968692779541016,
                -42
            ],
            "type" : "VEC3"
        },
        {
            "bufferView" : 20,
            "componentType" : 5126,
            "count" : 6,
            "type" : "VEC3"
        },
        {
            "bufferView" : 21,
            "componentType" : 5126,
            "count" : 6,
            "type" : "VEC2"
        },
        {
            "bufferView" : 22,
            "componentType" : 5123,
            "count" : 12,
            "type" : "SCALAR"
        },
        {
            "bufferView" : 23,
            "componentType" : 5126,
            "count" : 968,
            "max" : [
                122.73693084716797,
                40.031307220458984,
                -44
            ],
            "min" : [
                42.7369270324707,
                -39.968692779541016,
                -44.29999923706055
            ],
            "type" : "VEC3"
        },
        {
            "bufferView" : 24,
            "componentType" : 5126,
            "count" : 968,
            "type" : "VEC3"
        },
        {
            "bufferView" : 25,
            "componentType" : 5126,
            "count" : 968,
            "type" : "VEC2"
        },
        {
            "bufferView" : 26,
            "componentType" : 5126,
            "count" : 216,
            "max" : [
                60,
                45,
                -49
            ],
            "min" : [
                -70,
                -45,
                -51
            ],
            "type" : "VEC3"
        },
        {
            "bufferView" : 27,
            "componentType" : 5126,
            "count" : 216,
            "type" : "VEC3"
        },
        {
            "bufferView" : 28,
            "componentType" : 5126,
            "count" : 216,
            "type" : "VEC2"
        },
        {
            "bufferView" : 29,
            "componentType" : 5123,
            "count" : 612,
            "type" : "SCALAR"
        },
        {
            "bufferView" : 30,
            "componentType" : 5126,
            "count" : 1096,
            "max" : [
                60,
                45,
                0
            ],
            "min" : [
                -70,
                -45,
                -49
            ],
            "type" : "VEC3"
        },
        {
            "bufferView" : 31,
            "componentType" : 5126,
            "count" : 1096,
            "type" : "VEC3"
        },
        {
            "bufferView" : 32,
            "componentType" : 5126,
            "count" : 1096,
            "type" : "VEC2"
        },
        {
            "bufferView" : 33,
            "componentType" : 5123,
            "count" : 3036,
            "type" : "SCALAR"
        }
    ],
    "bufferViews" : [
        {
            "buffer" : 0,
            "byteLength" : 11616,
            "byteOffset" : 0
        },
        {
            "buffer" : 0,
            "byteLength" : 11616,
            "byteOffset" : 11616
        },
        {
            "buffer" : 0,
            "byteLength" : 7744,
            "byteOffset" : 23232
        },
        {
            "buffer" : 0,
            "byteLength" : 5736,
            "byteOffset" : 30976
        },
        {
            "buffer" : 0,
            "byteLength" : 72,
            "byteOffset" : 36712
        },
        {
            "buffer" : 0,
            "byteLength" : 72,
            "byteOffset" : 36784
        },
        {
            "buffer" : 0,
            "byteLength" : 48,
            "byteOffset" : 36856
        },
        {
            "buffer" : 0,
            "byteLength" : 24,
            "byteOffset" : 36904
        },
        {
            "buffer" : 0,
            "byteLength" : 11856,
            "byteOffset" : 36928
        },
        {
            "buffer" : 0,
            "byteLength" : 11856,
            "byteOffset" : 48784
        },
        {
            "buffer" : 0,
            "byteLength" : 7904,
            "byteOffset" : 60640
        },
        {
            "buffer" : 0,
            "byteLength" : 5352,
            "byteOffset" : 68544
        },
        {
            "buffer" : 0,
            "byteLength" : 72,
            "byteOffset" : 73896
        },
        {
            "buffer" : 0,
            "byteLength" : 72,
            "byteOffset" : 73968
        },
        {
            "buffer" : 0,
            "byteLength" : 48,
            "byteOffset" : 74040
        },
        {
            "buffer" : 0,
            "byteLength" : 11856,
            "byteOffset" : 74088
        },
        {
            "buffer" : 0,
            "byteLength" : 11856,
            "byteOffset" : 85944
        },
        {
            "buffer" : 0,
            "byteLength" : 7904,
            "byteOffset" : 97800
        },
        {
            "buffer" : 0,
            "byteLength" : 5352,
            "byteOffset" : 105704
        },
        {
            "buffer" : 0,
            "byteLength" : 72,
            "byteOffset" : 111056
        },
        {
            "buffer" : 0,
            "byteLength" : 72,
            "byteOffset" : 111128
        },
        {
            "buffer" : 0,
            "byteLength" : 48,
            "byteOffset" : 111200
        },
        {
            "buffer" : 0,
            "byteLength" : 24,
            "byteOffset" : 111248
        },
        {
            "buffer" : 0,
            "byteLength" : 11616,
            "byteOffset" : 111272
        },
        {
            "buffer" : 0,
            "byteLength" : 11616,
            "byteOffset" : 122888
        },
        {
            "buffer" : 0,
            "byteLength" : 7744,
            "byteOffset" : 134504
        },
        {
            "buffer" : 0,
            "byteLength" : 2592,
            "byteOffset" : 142248
        },
        {
            "buffer" : 0,
            "byteLength" : 2592,
            "byteOffset" : 144840
        },
        {
            "buffer" : 0,
            "byteLength" : 1728,
            "byteOffset" : 147432
        },
        {
            "buffer" : 0,
            "byteLength" : 1224,
            "byteOffset" : 149160
        },
        {
            "buffer" : 0,
            "byteLength" : 13152,
            "byteOffset" : 150384
        },
        {
            "buffer" : 0,
            "byteLength" : 13152,
            "byteOffset" : 163536
        },
        {
            "buffer" : 0,
            "byteLength" : 8768,
            "byteOffset" : 176688
        },
        {
            "buffer" : 0,
            "byteLength" : 6072,
            "byteOffset" : 185456
        }
    ],
    "buffers" : [
        {
            "byteLength" : 191528,
            "uri" : "data:application/octet-stream;base64,"
        }
    ]
}
