{
    "asset" : {
        "generator" : "Khronos glTF Blender I/O v1.2.75",
        "version" : "2.0"
    },
    "scene" : 0,
    "scenes" : [
        {
            "name" : "Scene",
            "nodes" : [
                0,
                1,
                2
            ]
        }
    ],
    "nodes" : [
        {
            "mesh" : 0,
            "name" : "object_1",
            "rotation" : [
                0.7071068286895752,
                0,
                0,
                0.7071067094802856
            ]
        },
        {
            "mesh" : 1,
            "name" : "object_2",
            "rotation" : [
                0.7071068286895752,
                0,
                0,
                0.7071067094802856
            ]
        },
        {
            "mesh" : 2,
            "name" : "object_3",
            "rotation" : [
                0.7071068286895752,
                0,
                0,
                0.7071067094802856
            ]
        }
    ],
    "materials" : [
        {
            "doubleSided" : true,
            "emissiveFactor" : [
                0,
                0,
                0
            ],
            "name" : "diffuse_56_30_1_255",
            "pbrMetallicRoughness" : {
                "baseColorFactor" : [
                    0.21960000693798065,
                    0.11760000139474869,
                    0.0038999998942017555,
                    1
                ],
                "metallicFactor" : 0,
                "roughnessFactor" : 1
            }
        }
    ],
    "meshes" : [
        {
            "name" : "object_1",
            "primitives" : [
                {
                    "attributes" : {
                        "POSITION" : 0,
                        "NORMAL" : 1,
                        "TEXCOORD_0" : 2
                    },
                    "indices" : 3,
                    "material" : 0
                }
            ]
        },
        {
            "name" : "object_2",
            "primitives" : [
                {
                    "attributes" : {
                        "POSITION" : 4,
                        "NORMAL" : 5,
                        "TEXCOORD_0" : 6
                    },
                    "indices" : 7,
                    "material" : 0
                }
            ]
        },
        {
            "name" : "object_3",
            "primitives" : [
                {
                    "attributes" : {
                        "POSITION" : 8,
                        "NORMAL" : 9,
                        "TEXCOORD_0" : 10
                    },
                    "indices" : 11,
                    "material" : 0
                }
            ]
        }
    ],
    "accessors" : [
        {
            "bufferView" : 0,
            "componentType" : 5126,
            "count" : 78,
            "max" : [
                1.2324613332748413,
                1.245240330696106,
                -5.002451419830322
            ],
            "min" : [
                -1.2504903078079224,
                -1.2462209463119507,
                -25.002450942993164
            ],
            "type" : "VEC3"
        },
        {
            "bufferView" : 1,
            "componentType" : 5126,
            "count" : 78,
            "type" : "VEC3"
        },
        {
            "bufferView" : 2,
            "componentType" : 5126,
            "count" : 78,
            "type" : "VEC2"
        },
        {
            "bufferView" : 3,
            "componentType" : 5123,
            "count" : 216,
            "type" : "SCALAR"
        },
        {
            "bufferView" : 4,
            "componentType" : 5126,
            "count" : 7004,
            "max" : [
                25.09756851196289,
                25.09756851196289,
                -0.002451451728120446
            ],
            "min" : [
                -25.098548889160156,
                -25.098548889160156,
                -5.492741584777832
            ],
            "type" : "VEC3"
        },
        {
            "bufferView" : 5,
            "componentType" : 5126,
            "count" : 7004,
            "type" : "VEC3"
        },
        {
            "bufferView" : 6,
            "componentType" : 5126,
            "count" : 7004,
            "type" : "VEC2"
        },
        {
            "bufferView" : 7,
            "componentType" : 5123,
            "count" : 39381,
            "type" : "SCALAR"
        },
        {
            "bufferView" : 8,
            "componentType" : 5126,
            "count" : 130,
            "max" : [
                34.999507904052734,
                34.999507904052734,
                -25.002450942993164
            ],
            "min" : [
                -35.000492095947266,
                -35.000492095947266,
                -26.252450942993164
            ],
            "type" : "VEC3"
        },
        {
            "bufferView" : 9,
            "componentType" : 5126,
            "count" : 130,
            "type" : "VEC3"
        },
        {
            "bufferView" : 10,
            "componentType" : 5126,
            "count" : 130,
            "type" : "VEC2"
        },
        {
            "bufferView" : 11,
            "componentType" : 5123,
            "count" : 372,
            "type" : "SCALAR"
        }
    ],
    "bufferViews" : [
        {
            "buffer" : 0,
            "byteLength" : 936,
            "byteOffset" : 0
        },
        {
            "buffer" : 0,
            "byteLength" : 936,
            "byteOffset" : 936
        },
        {
            "buffer" : 0,
            "byteLength" : 624,
            "byteOffset" : 1872
        },
        {
            "buffer" : 0,
            "byteLength" : 432,
            "byteOffset" : 2496
        },
        {
            "buffer" : 0,
            "byteLength" : 84048,
            "byteOffset" : 2928
        },
        {
            "buffer" : 0,
            "byteLength" : 84048,
            "byteOffset" : 86976
        },
        {
            "buffer" : 0,
            "byteLength" : 56032,
            "byteOffset" : 171024
        },
        {
            "buffer" : 0,
            "byteLength" : 78762,
            "byteOffset" : 227056
        },
        {
            "buffer" : 0,
            "byteLength" : 1560,
            "byteOffset" : 305820
        },
        {
            "buffer" : 0,
            "byteLength" : 1560,
            "byteOffset" : 307380
        },
        {
            "buffer" : 0,
            "byteLength" : 1040,
            "byteOffset" : 308940
        },
        {
            "buffer" : 0,
            "byteLength" : 744,
            "byteOffset" : 309980
        }
    ],
    "buffers" : [
        {
            "byteLength" : 310724,
            "uri" : "data:application/octet-stream;base64,"
        }
    ]
}
